<mxfile host="65bd71144e">
    <diagram name="ALL" id="VMVmmBq5v1BKjIlpJV4w">
        <mxGraphModel dx="3440" dy="1440" grid="1" gridSize="10" guides="1" tooltips="1" connect="1" arrows="1" fold="1" page="1" pageScale="1" pageWidth="850" pageHeight="1100" math="0" shadow="0">
            <root>
                <mxCell id="Kl94CpffAwTvGEuPzRZP-0"/>
                <mxCell id="Kl94CpffAwTvGEuPzRZP-1" parent="Kl94CpffAwTvGEuPzRZP-0"/>
                <mxCell id="Kl94CpffAwTvGEuPzRZP-2" value="&lt;span style=&quot;background-color: rgb(0, 76, 153);&quot;&gt;&lt;font color=&quot;#ffffff&quot;&gt;isPressed(&lt;b&gt;BTN1&lt;/b&gt;)&lt;/font&gt;&lt;/span&gt;" style="edgeStyle=none;html=1;exitX=1;exitY=0.5;exitDx=0;exitDy=0;" parent="Kl94CpffAwTvGEuPzRZP-1" source="Kl94CpffAwTvGEuPzRZP-3" target="Kl94CpffAwTvGEuPzRZP-21" edge="1">
                    <mxGeometry relative="1" as="geometry">
                        <mxPoint as="offset"/>
                    </mxGeometry>
                </mxCell>
                <mxCell id="Kl94CpffAwTvGEuPzRZP-3" value="&lt;b&gt;&lt;font color=&quot;#ffffff&quot;&gt;Mode 1&lt;/font&gt;&lt;/b&gt;" style="ellipse;whiteSpace=wrap;html=1;aspect=fixed;fillColor=#004C99;strokeColor=#56517E;" parent="Kl94CpffAwTvGEuPzRZP-1" vertex="1">
                    <mxGeometry x="570" y="260" width="80" height="80" as="geometry"/>
                </mxCell>
                <mxCell id="Kl94CpffAwTvGEuPzRZP-4" style="edgeStyle=orthogonalEdgeStyle;curved=1;html=1;exitX=0.5;exitY=1;exitDx=0;exitDy=0;entryX=0.5;entryY=0;entryDx=0;entryDy=0;fontColor=#004C99;" parent="Kl94CpffAwTvGEuPzRZP-1" source="Kl94CpffAwTvGEuPzRZP-8" target="Kl94CpffAwTvGEuPzRZP-24" edge="1">
                    <mxGeometry relative="1" as="geometry">
                        <Array as="points">
                            <mxPoint x="1010" y="380"/>
                            <mxPoint x="1010" y="380"/>
                        </Array>
                    </mxGeometry>
                </mxCell>
                <mxCell id="Kl94CpffAwTvGEuPzRZP-5" value="&lt;span style=&quot;color: rgb(255, 255, 255); background-color: rgb(0, 76, 153);&quot;&gt;isPressed(&lt;/span&gt;&lt;b style=&quot;border-color: var(--border-color); color: rgb(255, 255, 255); background-color: rgb(0, 76, 153);&quot;&gt;BTN1&lt;/b&gt;&lt;span style=&quot;color: rgb(255, 255, 255); background-color: rgb(0, 76, 153);&quot;&gt;)&lt;/span&gt;" style="edgeLabel;html=1;align=center;verticalAlign=middle;resizable=0;points=[];" parent="Kl94CpffAwTvGEuPzRZP-4" vertex="1" connectable="0">
                    <mxGeometry x="-0.3658" y="-3" relative="1" as="geometry">
                        <mxPoint x="3" y="15" as="offset"/>
                    </mxGeometry>
                </mxCell>
                <mxCell id="Kl94CpffAwTvGEuPzRZP-6" style="edgeStyle=orthogonalEdgeStyle;curved=1;html=1;exitX=0.5;exitY=0;exitDx=0;exitDy=0;entryX=0.5;entryY=1;entryDx=0;entryDy=0;labelBackgroundColor=#004C99;fontColor=#FFFFFF;" parent="Kl94CpffAwTvGEuPzRZP-1" source="Kl94CpffAwTvGEuPzRZP-8" target="Kl94CpffAwTvGEuPzRZP-32" edge="1">
                    <mxGeometry relative="1" as="geometry">
                        <Array as="points">
                            <mxPoint x="1010" y="240"/>
                            <mxPoint x="1010" y="240"/>
                        </Array>
                    </mxGeometry>
                </mxCell>
                <mxCell id="Kl94CpffAwTvGEuPzRZP-7" value="&lt;span style=&quot;background-color: rgb(0, 76, 153);&quot;&gt;isPressed(&lt;/span&gt;&lt;b style=&quot;border-color: var(--border-color); background-color: rgb(0, 76, 153);&quot;&gt;BTN2&lt;/b&gt;&lt;span style=&quot;background-color: rgb(0, 76, 153);&quot;&gt;)&lt;/span&gt;" style="edgeLabel;html=1;align=center;verticalAlign=middle;resizable=0;points=[];fontColor=#FFFFFF;" parent="Kl94CpffAwTvGEuPzRZP-6" vertex="1" connectable="0">
                    <mxGeometry x="0.1138" relative="1" as="geometry">
                        <mxPoint y="7" as="offset"/>
                    </mxGeometry>
                </mxCell>
                <mxCell id="Kl94CpffAwTvGEuPzRZP-8" value="&lt;b&gt;&lt;font color=&quot;#ffffff&quot;&gt;Mode 2&lt;/font&gt;&lt;/b&gt;" style="ellipse;whiteSpace=wrap;html=1;aspect=fixed;fillColor=#004C99;strokeColor=#56517E;" parent="Kl94CpffAwTvGEuPzRZP-1" vertex="1">
                    <mxGeometry x="970" y="260" width="80" height="80" as="geometry"/>
                </mxCell>
                <mxCell id="Kl94CpffAwTvGEuPzRZP-9" style="edgeStyle=orthogonalEdgeStyle;curved=1;html=1;exitX=0;exitY=0.5;exitDx=0;exitDy=0;entryX=1;entryY=0.5;entryDx=0;entryDy=0;fontColor=#004C99;" parent="Kl94CpffAwTvGEuPzRZP-1" source="Kl94CpffAwTvGEuPzRZP-13" target="Kl94CpffAwTvGEuPzRZP-27" edge="1">
                    <mxGeometry relative="1" as="geometry"/>
                </mxCell>
                <mxCell id="Kl94CpffAwTvGEuPzRZP-10" value="&lt;span style=&quot;color: rgb(255, 255, 255); background-color: rgb(0, 76, 153);&quot;&gt;isPressed(&lt;/span&gt;&lt;b style=&quot;border-color: var(--border-color); color: rgb(255, 255, 255); background-color: rgb(0, 76, 153);&quot;&gt;BTN1&lt;/b&gt;&lt;span style=&quot;color: rgb(255, 255, 255); background-color: rgb(0, 76, 153);&quot;&gt;)&lt;/span&gt;" style="edgeLabel;html=1;align=center;verticalAlign=middle;resizable=0;points=[];" parent="Kl94CpffAwTvGEuPzRZP-9" vertex="1" connectable="0">
                    <mxGeometry x="0.2015" relative="1" as="geometry">
                        <mxPoint x="23" as="offset"/>
                    </mxGeometry>
                </mxCell>
                <mxCell id="Kl94CpffAwTvGEuPzRZP-11" style="edgeStyle=orthogonalEdgeStyle;curved=1;html=1;labelBackgroundColor=#004C99;fontColor=#FFFFFF;" parent="Kl94CpffAwTvGEuPzRZP-1" source="Kl94CpffAwTvGEuPzRZP-13" target="Kl94CpffAwTvGEuPzRZP-49" edge="1">
                    <mxGeometry relative="1" as="geometry">
                        <mxPoint x="1010" y="709.9999999999998" as="sourcePoint"/>
                        <Array as="points">
                            <mxPoint x="1010" y="700"/>
                            <mxPoint x="1010" y="700"/>
                        </Array>
                    </mxGeometry>
                </mxCell>
                <mxCell id="Kl94CpffAwTvGEuPzRZP-12" value="&lt;span style=&quot;border-color: var(--border-color); color: rgb(255, 255, 255); background-color: rgb(0, 76, 153);&quot;&gt;isPressed(&lt;/span&gt;&lt;b style=&quot;border-color: var(--border-color); color: rgb(255, 255, 255); background-color: rgb(0, 76, 153);&quot;&gt;BTN2&lt;/b&gt;&lt;span style=&quot;border-color: var(--border-color); color: rgb(255, 255, 255); background-color: rgb(0, 76, 153);&quot;&gt;)&lt;/span&gt;" style="edgeLabel;html=1;align=center;verticalAlign=middle;resizable=0;points=[];fontColor=#004C99;" parent="Kl94CpffAwTvGEuPzRZP-11" vertex="1" connectable="0">
                    <mxGeometry x="-0.2928" y="-3" relative="1" as="geometry">
                        <mxPoint y="11" as="offset"/>
                    </mxGeometry>
                </mxCell>
                <mxCell id="Kl94CpffAwTvGEuPzRZP-13" value="&lt;b&gt;&lt;font color=&quot;#ffffff&quot;&gt;Mode 3&lt;/font&gt;&lt;/b&gt;" style="ellipse;whiteSpace=wrap;html=1;aspect=fixed;fillColor=#004C99;strokeColor=#56517E;" parent="Kl94CpffAwTvGEuPzRZP-1" vertex="1">
                    <mxGeometry x="970" y="579.6999999999999" width="80" height="80" as="geometry"/>
                </mxCell>
                <mxCell id="Kl94CpffAwTvGEuPzRZP-14" style="edgeStyle=orthogonalEdgeStyle;curved=1;html=1;exitX=0.5;exitY=0;exitDx=0;exitDy=0;fontColor=#004C99;" parent="Kl94CpffAwTvGEuPzRZP-1" source="Kl94CpffAwTvGEuPzRZP-18" target="Kl94CpffAwTvGEuPzRZP-30" edge="1">
                    <mxGeometry relative="1" as="geometry">
                        <Array as="points">
                            <mxPoint x="610" y="680"/>
                            <mxPoint x="610" y="680"/>
                        </Array>
                    </mxGeometry>
                </mxCell>
                <mxCell id="Kl94CpffAwTvGEuPzRZP-15" value="&lt;span style=&quot;color: rgb(255, 255, 255); background-color: rgb(0, 76, 153);&quot;&gt;isPressed(&lt;/span&gt;&lt;b style=&quot;border-color: var(--border-color); color: rgb(255, 255, 255); background-color: rgb(0, 76, 153);&quot;&gt;BTN1&lt;/b&gt;&lt;span style=&quot;color: rgb(255, 255, 255); background-color: rgb(0, 76, 153);&quot;&gt;)&lt;/span&gt;" style="edgeLabel;html=1;align=center;verticalAlign=middle;resizable=0;points=[];" parent="Kl94CpffAwTvGEuPzRZP-14" vertex="1" connectable="0">
                    <mxGeometry x="0.3778" y="-1" relative="1" as="geometry">
                        <mxPoint x="-1" y="-47" as="offset"/>
                    </mxGeometry>
                </mxCell>
                <mxCell id="Kl94CpffAwTvGEuPzRZP-16" style="edgeStyle=orthogonalEdgeStyle;curved=1;html=1;exitX=0;exitY=1;exitDx=0;exitDy=0;entryX=1;entryY=1;entryDx=0;entryDy=0;labelBackgroundColor=#004C99;fontColor=#004C99;" parent="Kl94CpffAwTvGEuPzRZP-1" source="Kl94CpffAwTvGEuPzRZP-18" target="Kl94CpffAwTvGEuPzRZP-66" edge="1">
                    <mxGeometry relative="1" as="geometry">
                        <Array as="points">
                            <mxPoint x="582" y="680"/>
                            <mxPoint x="518" y="680"/>
                        </Array>
                    </mxGeometry>
                </mxCell>
                <mxCell id="Kl94CpffAwTvGEuPzRZP-17" value="&lt;span style=&quot;border-color: var(--border-color); color: rgb(255, 255, 255); background-color: rgb(0, 76, 153);&quot;&gt;isPressed(&lt;/span&gt;&lt;b style=&quot;border-color: var(--border-color); color: rgb(255, 255, 255); background-color: rgb(0, 76, 153);&quot;&gt;BTN2&lt;/b&gt;&lt;span style=&quot;border-color: var(--border-color); color: rgb(255, 255, 255); background-color: rgb(0, 76, 153);&quot;&gt;)&lt;/span&gt;" style="edgeLabel;html=1;align=center;verticalAlign=middle;resizable=0;points=[];fontColor=#004C99;" parent="Kl94CpffAwTvGEuPzRZP-16" vertex="1" connectable="0">
                    <mxGeometry x="0.2486" relative="1" as="geometry">
                        <mxPoint x="15" as="offset"/>
                    </mxGeometry>
                </mxCell>
                <mxCell id="Kl94CpffAwTvGEuPzRZP-18" value="&lt;b&gt;&lt;font color=&quot;#ffffff&quot;&gt;Mode 4&lt;/font&gt;&lt;/b&gt;" style="ellipse;whiteSpace=wrap;html=1;aspect=fixed;fillColor=#004C99;strokeColor=#56517E;" parent="Kl94CpffAwTvGEuPzRZP-1" vertex="1">
                    <mxGeometry x="570" y="579.6999999999999" width="80" height="80" as="geometry"/>
                </mxCell>
                <mxCell id="Kl94CpffAwTvGEuPzRZP-19" style="edgeStyle=orthogonalEdgeStyle;curved=1;html=1;exitX=1;exitY=0.5;exitDx=0;exitDy=0;fontColor=#004C99;" parent="Kl94CpffAwTvGEuPzRZP-1" source="Kl94CpffAwTvGEuPzRZP-21" target="Kl94CpffAwTvGEuPzRZP-8" edge="1">
                    <mxGeometry relative="1" as="geometry">
                        <Array as="points">
                            <mxPoint x="910" y="300"/>
                            <mxPoint x="910" y="300"/>
                        </Array>
                    </mxGeometry>
                </mxCell>
                <mxCell id="Kl94CpffAwTvGEuPzRZP-20" value="&lt;font style=&quot;background-color: rgb(204, 229, 255);&quot; color=&quot;#004c99&quot;&gt;isRelease(&lt;b&gt;BTN1&lt;/b&gt;)&lt;/font&gt;" style="edgeLabel;html=1;align=center;verticalAlign=middle;resizable=0;points=[];fontColor=#FFFFFF;" parent="Kl94CpffAwTvGEuPzRZP-19" vertex="1" connectable="0">
                    <mxGeometry x="0.1613" y="1" relative="1" as="geometry">
                        <mxPoint x="-18" y="1" as="offset"/>
                    </mxGeometry>
                </mxCell>
                <mxCell id="Kl94CpffAwTvGEuPzRZP-21" value="Mode 1&lt;br&gt;(pressed)" style="ellipse;whiteSpace=wrap;html=1;aspect=fixed;fillColor=#CCE5FF;" parent="Kl94CpffAwTvGEuPzRZP-1" vertex="1">
                    <mxGeometry x="770" y="260" width="80" height="80" as="geometry"/>
                </mxCell>
                <mxCell id="Kl94CpffAwTvGEuPzRZP-22" style="edgeStyle=orthogonalEdgeStyle;curved=1;html=1;exitX=0.5;exitY=1;exitDx=0;exitDy=0;fontColor=#004C99;" parent="Kl94CpffAwTvGEuPzRZP-1" source="Kl94CpffAwTvGEuPzRZP-24" target="Kl94CpffAwTvGEuPzRZP-13" edge="1">
                    <mxGeometry relative="1" as="geometry"/>
                </mxCell>
                <mxCell id="Kl94CpffAwTvGEuPzRZP-23" value="&lt;span style=&quot;background-color: rgb(204, 229, 255);&quot;&gt;isRelease(&lt;/span&gt;&lt;b style=&quot;border-color: var(--border-color); background-color: rgb(204, 229, 255);&quot;&gt;BTN1&lt;/b&gt;&lt;span style=&quot;background-color: rgb(204, 229, 255);&quot;&gt;)&lt;/span&gt;" style="edgeLabel;html=1;align=center;verticalAlign=middle;resizable=0;points=[];fontColor=#004C99;" parent="Kl94CpffAwTvGEuPzRZP-22" vertex="1" connectable="0">
                    <mxGeometry x="-0.1844" y="1" relative="1" as="geometry">
                        <mxPoint x="-1" y="8" as="offset"/>
                    </mxGeometry>
                </mxCell>
                <mxCell id="Kl94CpffAwTvGEuPzRZP-24" value="Mode 2&lt;br&gt;(pressed)" style="ellipse;whiteSpace=wrap;html=1;aspect=fixed;fillColor=#CCE5FF;" parent="Kl94CpffAwTvGEuPzRZP-1" vertex="1">
                    <mxGeometry x="970" y="420" width="80" height="80" as="geometry"/>
                </mxCell>
                <mxCell id="Kl94CpffAwTvGEuPzRZP-25" style="edgeStyle=orthogonalEdgeStyle;curved=1;html=1;exitX=0;exitY=0.5;exitDx=0;exitDy=0;entryX=1;entryY=0.5;entryDx=0;entryDy=0;fontColor=#004C99;" parent="Kl94CpffAwTvGEuPzRZP-1" source="Kl94CpffAwTvGEuPzRZP-27" target="Kl94CpffAwTvGEuPzRZP-18" edge="1">
                    <mxGeometry relative="1" as="geometry"/>
                </mxCell>
                <mxCell id="Kl94CpffAwTvGEuPzRZP-26" value="&lt;span style=&quot;border-color: var(--border-color); background-color: rgb(204, 229, 255);&quot;&gt;isRelease(&lt;/span&gt;&lt;b style=&quot;border-color: var(--border-color); background-color: rgb(204, 229, 255);&quot;&gt;BTN1&lt;/b&gt;&lt;span style=&quot;border-color: var(--border-color); background-color: rgb(204, 229, 255);&quot;&gt;)&lt;/span&gt;" style="edgeLabel;html=1;align=center;verticalAlign=middle;resizable=0;points=[];fontColor=#004C99;" parent="Kl94CpffAwTvGEuPzRZP-25" vertex="1" connectable="0">
                    <mxGeometry x="0.2033" relative="1" as="geometry">
                        <mxPoint x="12" as="offset"/>
                    </mxGeometry>
                </mxCell>
                <mxCell id="Kl94CpffAwTvGEuPzRZP-27" value="Mode 3&lt;br&gt;(pressed)" style="ellipse;whiteSpace=wrap;html=1;aspect=fixed;fillColor=#CCE5FF;" parent="Kl94CpffAwTvGEuPzRZP-1" vertex="1">
                    <mxGeometry x="770" y="579.6999999999999" width="80" height="80" as="geometry"/>
                </mxCell>
                <mxCell id="Kl94CpffAwTvGEuPzRZP-28" style="edgeStyle=orthogonalEdgeStyle;curved=1;html=1;exitX=0.5;exitY=0;exitDx=0;exitDy=0;entryX=0.5;entryY=1;entryDx=0;entryDy=0;fontColor=#004C99;" parent="Kl94CpffAwTvGEuPzRZP-1" source="Kl94CpffAwTvGEuPzRZP-30" target="Kl94CpffAwTvGEuPzRZP-3" edge="1">
                    <mxGeometry relative="1" as="geometry"/>
                </mxCell>
                <mxCell id="Kl94CpffAwTvGEuPzRZP-29" value="&lt;span style=&quot;border-color: var(--border-color); background-color: rgb(204, 229, 255);&quot;&gt;isRelease(&lt;/span&gt;&lt;b style=&quot;border-color: var(--border-color); background-color: rgb(204, 229, 255);&quot;&gt;BTN1&lt;/b&gt;&lt;span style=&quot;border-color: var(--border-color); background-color: rgb(204, 229, 255);&quot;&gt;)&lt;/span&gt;" style="edgeLabel;html=1;align=center;verticalAlign=middle;resizable=0;points=[];fontColor=#004C99;" parent="Kl94CpffAwTvGEuPzRZP-28" vertex="1" connectable="0">
                    <mxGeometry x="-0.0566" y="-2" relative="1" as="geometry">
                        <mxPoint x="-2" y="-2" as="offset"/>
                    </mxGeometry>
                </mxCell>
                <mxCell id="Kl94CpffAwTvGEuPzRZP-30" value="Mode 4&lt;br&gt;(pressed)" style="ellipse;whiteSpace=wrap;html=1;aspect=fixed;fillColor=#CCE5FF;" parent="Kl94CpffAwTvGEuPzRZP-1" vertex="1">
                    <mxGeometry x="570" y="420" width="80" height="80" as="geometry"/>
                </mxCell>
                <mxCell id="Kl94CpffAwTvGEuPzRZP-31" style="edgeStyle=orthogonalEdgeStyle;curved=1;html=1;exitX=1;exitY=0.5;exitDx=0;exitDy=0;labelBackgroundColor=#004C99;fontColor=#FFFFFF;" parent="Kl94CpffAwTvGEuPzRZP-1" source="Kl94CpffAwTvGEuPzRZP-32" target="Kl94CpffAwTvGEuPzRZP-37" edge="1">
                    <mxGeometry relative="1" as="geometry"/>
                </mxCell>
                <mxCell id="Kl94CpffAwTvGEuPzRZP-32" value="Create temporary&lt;br&gt;RED counter" style="ellipse;whiteSpace=wrap;html=1;aspect=fixed;" parent="Kl94CpffAwTvGEuPzRZP-1" vertex="1">
                    <mxGeometry x="970" y="140" width="80" height="80" as="geometry"/>
                </mxCell>
                <mxCell id="Kl94CpffAwTvGEuPzRZP-33" style="edgeStyle=orthogonalEdgeStyle;curved=1;html=1;exitX=0;exitY=0;exitDx=0;exitDy=0;entryX=0;entryY=0;entryDx=0;entryDy=0;labelBackgroundColor=#004C99;fontColor=#FFFFFF;" parent="Kl94CpffAwTvGEuPzRZP-1" source="Kl94CpffAwTvGEuPzRZP-37" target="Kl94CpffAwTvGEuPzRZP-44" edge="1">
                    <mxGeometry relative="1" as="geometry">
                        <Array as="points">
                            <mxPoint x="1158" y="120"/>
                            <mxPoint x="1222" y="120"/>
                        </Array>
                    </mxGeometry>
                </mxCell>
                <mxCell id="Kl94CpffAwTvGEuPzRZP-34" value="&lt;span style=&quot;color: rgb(0, 76, 153); background-color: rgb(204, 229, 255);&quot;&gt;isRelease(&lt;/span&gt;&lt;b style=&quot;border-color: var(--border-color); color: rgb(0, 76, 153); background-color: rgb(204, 229, 255);&quot;&gt;BTN2&lt;/b&gt;&lt;span style=&quot;color: rgb(0, 76, 153); background-color: rgb(204, 229, 255);&quot;&gt;)&lt;/span&gt;" style="edgeLabel;html=1;align=center;verticalAlign=middle;resizable=0;points=[];fontColor=#FFFFFF;" parent="Kl94CpffAwTvGEuPzRZP-33" vertex="1" connectable="0">
                    <mxGeometry x="-0.0918" y="-1" relative="1" as="geometry">
                        <mxPoint x="6" as="offset"/>
                    </mxGeometry>
                </mxCell>
                <mxCell id="Kl94CpffAwTvGEuPzRZP-35" style="edgeStyle=orthogonalEdgeStyle;curved=1;html=1;exitX=0;exitY=0.5;exitDx=0;exitDy=0;entryX=0.5;entryY=0;entryDx=0;entryDy=0;labelBackgroundColor=#004C99;fontColor=#FFFFFF;" parent="Kl94CpffAwTvGEuPzRZP-1" source="Kl94CpffAwTvGEuPzRZP-37" target="Kl94CpffAwTvGEuPzRZP-44" edge="1">
                    <mxGeometry relative="1" as="geometry">
                        <Array as="points">
                            <mxPoint x="1130" y="80"/>
                            <mxPoint x="1250" y="80"/>
                        </Array>
                    </mxGeometry>
                </mxCell>
                <mxCell id="Kl94CpffAwTvGEuPzRZP-36" value="&lt;span style=&quot;border-color: var(--border-color); background-color: rgb(0, 76, 153);&quot;&gt;isPressTimeOut(&lt;b&gt;BTN2&lt;/b&gt;)&lt;br&gt;&lt;/span&gt;" style="edgeLabel;html=1;align=center;verticalAlign=middle;resizable=0;points=[];fontColor=#FFFFFF;" parent="Kl94CpffAwTvGEuPzRZP-35" vertex="1" connectable="0">
                    <mxGeometry x="-0.1293" relative="1" as="geometry">
                        <mxPoint x="16" as="offset"/>
                    </mxGeometry>
                </mxCell>
                <mxCell id="Kl94CpffAwTvGEuPzRZP-37" value="Update &lt;br&gt;temporary&lt;br&gt;RED counter&lt;br&gt;(pending)" style="ellipse;whiteSpace=wrap;html=1;aspect=fixed;direction=south;" parent="Kl94CpffAwTvGEuPzRZP-1" vertex="1">
                    <mxGeometry x="1090" y="140" width="80" height="80" as="geometry"/>
                </mxCell>
                <mxCell id="Kl94CpffAwTvGEuPzRZP-38" style="edgeStyle=orthogonalEdgeStyle;curved=1;html=1;exitX=0;exitY=1;exitDx=0;exitDy=0;entryX=1;entryY=0;entryDx=0;entryDy=0;labelBackgroundColor=#004C99;fontColor=#FFFFFF;" parent="Kl94CpffAwTvGEuPzRZP-1" source="Kl94CpffAwTvGEuPzRZP-44" target="Kl94CpffAwTvGEuPzRZP-37" edge="1">
                    <mxGeometry relative="1" as="geometry">
                        <Array as="points">
                            <mxPoint x="1222" y="240"/>
                            <mxPoint x="1158" y="240"/>
                        </Array>
                    </mxGeometry>
                </mxCell>
                <mxCell id="Kl94CpffAwTvGEuPzRZP-39" value="&lt;span style=&quot;border-color: var(--border-color); background-color: rgb(0, 76, 153);&quot;&gt;isPressed(&lt;/span&gt;&lt;b style=&quot;border-color: var(--border-color); background-color: rgb(0, 76, 153);&quot;&gt;BTN2&lt;/b&gt;&lt;span style=&quot;border-color: var(--border-color); background-color: rgb(0, 76, 153);&quot;&gt;)&lt;/span&gt;" style="edgeLabel;html=1;align=center;verticalAlign=middle;resizable=0;points=[];fontColor=#FFFFFF;" parent="Kl94CpffAwTvGEuPzRZP-38" vertex="1" connectable="0">
                    <mxGeometry x="0.2155" y="-4" relative="1" as="geometry">
                        <mxPoint x="14" y="4" as="offset"/>
                    </mxGeometry>
                </mxCell>
                <mxCell id="Kl94CpffAwTvGEuPzRZP-40" style="edgeStyle=orthogonalEdgeStyle;curved=1;html=1;exitX=0.5;exitY=1;exitDx=0;exitDy=0;labelBackgroundColor=#004C99;fontColor=#FFFFFF;" parent="Kl94CpffAwTvGEuPzRZP-1" source="Kl94CpffAwTvGEuPzRZP-44" target="Kl94CpffAwTvGEuPzRZP-47" edge="1">
                    <mxGeometry relative="1" as="geometry"/>
                </mxCell>
                <mxCell id="Kl94CpffAwTvGEuPzRZP-41" value="&lt;span style=&quot;border-color: var(--border-color); background-color: rgb(0, 76, 153);&quot;&gt;isPressed(&lt;/span&gt;&lt;b style=&quot;border-color: var(--border-color); background-color: rgb(0, 76, 153);&quot;&gt;BTN3&lt;/b&gt;&lt;span style=&quot;border-color: var(--border-color); background-color: rgb(0, 76, 153);&quot;&gt;)&lt;/span&gt;" style="edgeLabel;html=1;align=center;verticalAlign=middle;resizable=0;points=[];fontColor=#FFFFFF;" parent="Kl94CpffAwTvGEuPzRZP-40" vertex="1" connectable="0">
                    <mxGeometry x="-0.2185" y="1" relative="1" as="geometry">
                        <mxPoint x="-1" y="19" as="offset"/>
                    </mxGeometry>
                </mxCell>
                <mxCell id="Kl94CpffAwTvGEuPzRZP-42" style="edgeStyle=orthogonalEdgeStyle;curved=1;html=1;exitX=1;exitY=0.5;exitDx=0;exitDy=0;entryX=1;entryY=0.5;entryDx=0;entryDy=0;labelBackgroundColor=#004C99;fontColor=#004C99;" parent="Kl94CpffAwTvGEuPzRZP-1" source="Kl94CpffAwTvGEuPzRZP-44" target="Kl94CpffAwTvGEuPzRZP-24" edge="1">
                    <mxGeometry relative="1" as="geometry">
                        <Array as="points">
                            <mxPoint x="1370" y="180"/>
                            <mxPoint x="1370" y="460"/>
                        </Array>
                    </mxGeometry>
                </mxCell>
                <mxCell id="Kl94CpffAwTvGEuPzRZP-43" value="&lt;span style=&quot;color: rgb(255, 255, 255); background-color: rgb(0, 76, 153);&quot;&gt;isPressed(&lt;/span&gt;&lt;b style=&quot;border-color: var(--border-color); color: rgb(255, 255, 255); background-color: rgb(0, 76, 153);&quot;&gt;BTN1&lt;/b&gt;&lt;span style=&quot;color: rgb(255, 255, 255); background-color: rgb(0, 76, 153);&quot;&gt;)&lt;/span&gt;" style="edgeLabel;html=1;align=center;verticalAlign=middle;resizable=0;points=[];fontColor=#004C99;" parent="Kl94CpffAwTvGEuPzRZP-42" vertex="1" connectable="0">
                    <mxGeometry x="0.3812" y="-20" relative="1" as="geometry">
                        <mxPoint as="offset"/>
                    </mxGeometry>
                </mxCell>
                <mxCell id="Kl94CpffAwTvGEuPzRZP-44" value="Update&lt;br style=&quot;border-color: var(--border-color);&quot;&gt;temporary&lt;br style=&quot;border-color: var(--border-color);&quot;&gt;RED counter&lt;br style=&quot;border-color: var(--border-color);&quot;&gt;(execute)" style="ellipse;whiteSpace=wrap;html=1;aspect=fixed;" parent="Kl94CpffAwTvGEuPzRZP-1" vertex="1">
                    <mxGeometry x="1210" y="140" width="80" height="80" as="geometry"/>
                </mxCell>
                <mxCell id="Kl94CpffAwTvGEuPzRZP-45" style="edgeStyle=orthogonalEdgeStyle;curved=1;html=1;exitX=0;exitY=1;exitDx=0;exitDy=0;entryX=1;entryY=0.5;entryDx=0;entryDy=0;labelBackgroundColor=#004C99;fontColor=#FFFFFF;" parent="Kl94CpffAwTvGEuPzRZP-1" source="Kl94CpffAwTvGEuPzRZP-47" target="Kl94CpffAwTvGEuPzRZP-8" edge="1">
                    <mxGeometry relative="1" as="geometry"/>
                </mxCell>
                <mxCell id="Kl94CpffAwTvGEuPzRZP-46" value="&lt;span style=&quot;border-color: var(--border-color); color: rgb(0, 76, 153); background-color: rgb(204, 229, 255);&quot;&gt;isRelease(&lt;/span&gt;&lt;b style=&quot;border-color: var(--border-color); color: rgb(0, 76, 153); background-color: rgb(204, 229, 255);&quot;&gt;BTN3&lt;/b&gt;&lt;span style=&quot;border-color: var(--border-color); color: rgb(0, 76, 153); background-color: rgb(204, 229, 255);&quot;&gt;)&lt;/span&gt;" style="edgeLabel;html=1;align=center;verticalAlign=middle;resizable=0;points=[];fontColor=#FFFFFF;" parent="Kl94CpffAwTvGEuPzRZP-45" vertex="1" connectable="0">
                    <mxGeometry x="0.2011" y="13" relative="1" as="geometry">
                        <mxPoint as="offset"/>
                    </mxGeometry>
                </mxCell>
                <mxCell id="Kl94CpffAwTvGEuPzRZP-47" value="Update&lt;br&gt;chosen&lt;br&gt;RED value" style="ellipse;whiteSpace=wrap;html=1;aspect=fixed;" parent="Kl94CpffAwTvGEuPzRZP-1" vertex="1">
                    <mxGeometry x="1210" y="300" width="80" height="80" as="geometry"/>
                </mxCell>
                <mxCell id="Kl94CpffAwTvGEuPzRZP-48" style="edgeStyle=orthogonalEdgeStyle;curved=1;html=1;exitX=0;exitY=0.5;exitDx=0;exitDy=0;labelBackgroundColor=#004C99;fontColor=#FFFFFF;" parent="Kl94CpffAwTvGEuPzRZP-1" source="Kl94CpffAwTvGEuPzRZP-49" target="Kl94CpffAwTvGEuPzRZP-54" edge="1">
                    <mxGeometry relative="1" as="geometry"/>
                </mxCell>
                <mxCell id="Kl94CpffAwTvGEuPzRZP-49" value="Create temporary&lt;br&gt;AMBER counter" style="ellipse;whiteSpace=wrap;html=1;aspect=fixed;" parent="Kl94CpffAwTvGEuPzRZP-1" vertex="1">
                    <mxGeometry x="970" y="746.8" width="80" height="80" as="geometry"/>
                </mxCell>
                <mxCell id="Kl94CpffAwTvGEuPzRZP-50" style="edgeStyle=orthogonalEdgeStyle;curved=1;html=1;exitX=0;exitY=1;exitDx=0;exitDy=0;entryX=1;entryY=0;entryDx=0;entryDy=0;labelBackgroundColor=#004C99;fontColor=#004C99;" parent="Kl94CpffAwTvGEuPzRZP-1" source="Kl94CpffAwTvGEuPzRZP-54" target="Kl94CpffAwTvGEuPzRZP-61" edge="1">
                    <mxGeometry relative="1" as="geometry">
                        <Array as="points">
                            <mxPoint x="862" y="726.8"/>
                            <mxPoint x="798" y="726.8"/>
                        </Array>
                    </mxGeometry>
                </mxCell>
                <mxCell id="Kl94CpffAwTvGEuPzRZP-51" value="&lt;span style=&quot;border-color: var(--border-color); background-color: rgb(204, 229, 255);&quot;&gt;isRelease(&lt;/span&gt;&lt;b style=&quot;border-color: var(--border-color); background-color: rgb(204, 229, 255);&quot;&gt;BTN2&lt;/b&gt;&lt;span style=&quot;border-color: var(--border-color); background-color: rgb(204, 229, 255);&quot;&gt;)&lt;/span&gt;" style="edgeLabel;html=1;align=center;verticalAlign=middle;resizable=0;points=[];fontColor=#004C99;" parent="Kl94CpffAwTvGEuPzRZP-50" vertex="1" connectable="0">
                    <mxGeometry x="0.2948" y="2" relative="1" as="geometry">
                        <mxPoint x="19" as="offset"/>
                    </mxGeometry>
                </mxCell>
                <mxCell id="Kl94CpffAwTvGEuPzRZP-52" style="edgeStyle=orthogonalEdgeStyle;curved=1;html=1;exitX=0;exitY=0.5;exitDx=0;exitDy=0;entryX=0.5;entryY=0;entryDx=0;entryDy=0;labelBackgroundColor=#004C99;fontColor=#004C99;" parent="Kl94CpffAwTvGEuPzRZP-1" source="Kl94CpffAwTvGEuPzRZP-54" target="Kl94CpffAwTvGEuPzRZP-61" edge="1">
                    <mxGeometry relative="1" as="geometry">
                        <Array as="points">
                            <mxPoint x="890" y="696.8"/>
                            <mxPoint x="770" y="696.8"/>
                        </Array>
                    </mxGeometry>
                </mxCell>
                <mxCell id="Kl94CpffAwTvGEuPzRZP-53" value="&lt;span style=&quot;color: rgb(255, 255, 255); background-color: rgb(0, 76, 153);&quot;&gt;isPressTimeOut(&lt;/span&gt;&lt;b style=&quot;border-color: var(--border-color); color: rgb(255, 255, 255); background-color: rgb(0, 76, 153);&quot;&gt;BTN2&lt;/b&gt;&lt;span style=&quot;color: rgb(255, 255, 255); background-color: rgb(0, 76, 153);&quot;&gt;)&lt;/span&gt;" style="edgeLabel;html=1;align=center;verticalAlign=middle;resizable=0;points=[];fontColor=#004C99;" parent="Kl94CpffAwTvGEuPzRZP-52" vertex="1" connectable="0">
                    <mxGeometry x="0.1723" y="5" relative="1" as="geometry">
                        <mxPoint x="9" as="offset"/>
                    </mxGeometry>
                </mxCell>
                <mxCell id="Kl94CpffAwTvGEuPzRZP-54" value="Update &lt;br&gt;temporary&lt;br&gt;AMBER&lt;br&gt;counter&lt;br&gt;(pending)" style="ellipse;whiteSpace=wrap;html=1;aspect=fixed;direction=south;" parent="Kl94CpffAwTvGEuPzRZP-1" vertex="1">
                    <mxGeometry x="850" y="746.8" width="80" height="80" as="geometry"/>
                </mxCell>
                <mxCell id="Kl94CpffAwTvGEuPzRZP-55" style="edgeStyle=orthogonalEdgeStyle;curved=1;html=1;exitX=1;exitY=1;exitDx=0;exitDy=0;entryX=1;entryY=1;entryDx=0;entryDy=0;labelBackgroundColor=#004C99;fontColor=#004C99;" parent="Kl94CpffAwTvGEuPzRZP-1" source="Kl94CpffAwTvGEuPzRZP-61" target="Kl94CpffAwTvGEuPzRZP-54" edge="1">
                    <mxGeometry relative="1" as="geometry">
                        <Array as="points">
                            <mxPoint x="798" y="846.8"/>
                            <mxPoint x="862" y="846.8"/>
                        </Array>
                    </mxGeometry>
                </mxCell>
                <mxCell id="Kl94CpffAwTvGEuPzRZP-56" value="&lt;span style=&quot;border-color: var(--border-color); color: rgb(255, 255, 255); background-color: rgb(0, 76, 153);&quot;&gt;isPressed(&lt;/span&gt;&lt;b style=&quot;border-color: var(--border-color); color: rgb(255, 255, 255); background-color: rgb(0, 76, 153);&quot;&gt;BTN2&lt;/b&gt;&lt;span style=&quot;border-color: var(--border-color); color: rgb(255, 255, 255); background-color: rgb(0, 76, 153);&quot;&gt;)&lt;/span&gt;" style="edgeLabel;html=1;align=center;verticalAlign=middle;resizable=0;points=[];fontColor=#004C99;" parent="Kl94CpffAwTvGEuPzRZP-55" vertex="1" connectable="0">
                    <mxGeometry x="-0.2244" relative="1" as="geometry">
                        <mxPoint x="14" as="offset"/>
                    </mxGeometry>
                </mxCell>
                <mxCell id="Kl94CpffAwTvGEuPzRZP-57" style="edgeStyle=orthogonalEdgeStyle;curved=1;html=1;exitX=0;exitY=0.5;exitDx=0;exitDy=0;entryX=0.125;entryY=0.754;entryDx=0;entryDy=0;entryPerimeter=0;labelBackgroundColor=#004C99;fontColor=#004C99;" parent="Kl94CpffAwTvGEuPzRZP-1" source="Kl94CpffAwTvGEuPzRZP-61" target="Kl94CpffAwTvGEuPzRZP-27" edge="1">
                    <mxGeometry relative="1" as="geometry">
                        <Array as="points">
                            <mxPoint x="700" y="787"/>
                            <mxPoint x="700" y="640"/>
                        </Array>
                    </mxGeometry>
                </mxCell>
                <mxCell id="Kl94CpffAwTvGEuPzRZP-58" value="&lt;span style=&quot;border-color: var(--border-color); color: rgb(255, 255, 255); background-color: rgb(0, 76, 153);&quot;&gt;isPressed(&lt;/span&gt;&lt;b style=&quot;border-color: var(--border-color); color: rgb(255, 255, 255); background-color: rgb(0, 76, 153);&quot;&gt;BTN1&lt;/b&gt;&lt;span style=&quot;border-color: var(--border-color); color: rgb(255, 255, 255); background-color: rgb(0, 76, 153);&quot;&gt;)&lt;/span&gt;" style="edgeLabel;html=1;align=center;verticalAlign=middle;resizable=0;points=[];fontColor=#004C99;" parent="Kl94CpffAwTvGEuPzRZP-57" vertex="1" connectable="0">
                    <mxGeometry x="-0.0282" y="2" relative="1" as="geometry">
                        <mxPoint as="offset"/>
                    </mxGeometry>
                </mxCell>
                <mxCell id="Kl94CpffAwTvGEuPzRZP-59" style="edgeStyle=orthogonalEdgeStyle;curved=1;html=1;exitX=0.5;exitY=1;exitDx=0;exitDy=0;entryX=0.5;entryY=0;entryDx=0;entryDy=0;labelBackgroundColor=#004C99;fontColor=#004C99;" parent="Kl94CpffAwTvGEuPzRZP-1" source="Kl94CpffAwTvGEuPzRZP-61" target="Kl94CpffAwTvGEuPzRZP-64" edge="1">
                    <mxGeometry relative="1" as="geometry"/>
                </mxCell>
                <mxCell id="Kl94CpffAwTvGEuPzRZP-60" value="&lt;span style=&quot;border-color: var(--border-color); color: rgb(255, 255, 255); background-color: rgb(0, 76, 153);&quot;&gt;isPressed(&lt;/span&gt;&lt;b style=&quot;border-color: var(--border-color); color: rgb(255, 255, 255); background-color: rgb(0, 76, 153);&quot;&gt;BTN3&lt;/b&gt;&lt;span style=&quot;border-color: var(--border-color); color: rgb(255, 255, 255); background-color: rgb(0, 76, 153);&quot;&gt;)&lt;/span&gt;" style="edgeLabel;html=1;align=center;verticalAlign=middle;resizable=0;points=[];fontColor=#004C99;" parent="Kl94CpffAwTvGEuPzRZP-59" vertex="1" connectable="0">
                    <mxGeometry x="0.1117" y="2" relative="1" as="geometry">
                        <mxPoint x="-2" y="2" as="offset"/>
                    </mxGeometry>
                </mxCell>
                <mxCell id="Kl94CpffAwTvGEuPzRZP-61" value="Update&lt;br style=&quot;border-color: var(--border-color);&quot;&gt;temporary&lt;br style=&quot;border-color: var(--border-color);&quot;&gt;AMBER&lt;br&gt;counter&lt;br style=&quot;border-color: var(--border-color);&quot;&gt;(execute)" style="ellipse;whiteSpace=wrap;html=1;aspect=fixed;" parent="Kl94CpffAwTvGEuPzRZP-1" vertex="1">
                    <mxGeometry x="730" y="746.8" width="80" height="80" as="geometry"/>
                </mxCell>
                <mxCell id="Kl94CpffAwTvGEuPzRZP-62" style="edgeStyle=orthogonalEdgeStyle;curved=1;html=1;exitX=1;exitY=0.5;exitDx=0;exitDy=0;entryX=1;entryY=0.5;entryDx=0;entryDy=0;labelBackgroundColor=#004C99;fontColor=#004C99;" parent="Kl94CpffAwTvGEuPzRZP-1" source="Kl94CpffAwTvGEuPzRZP-64" target="Kl94CpffAwTvGEuPzRZP-13" edge="1">
                    <mxGeometry relative="1" as="geometry">
                        <Array as="points">
                            <mxPoint x="1120" y="940"/>
                            <mxPoint x="1120" y="620"/>
                        </Array>
                    </mxGeometry>
                </mxCell>
                <mxCell id="Kl94CpffAwTvGEuPzRZP-63" value="&lt;span style=&quot;border-color: var(--border-color); background-color: rgb(204, 229, 255);&quot;&gt;isRelease(&lt;/span&gt;&lt;b style=&quot;border-color: var(--border-color); background-color: rgb(204, 229, 255);&quot;&gt;BTN3&lt;/b&gt;&lt;span style=&quot;border-color: var(--border-color); background-color: rgb(204, 229, 255);&quot;&gt;)&lt;/span&gt;" style="edgeLabel;html=1;align=center;verticalAlign=middle;resizable=0;points=[];fontColor=#004C99;" parent="Kl94CpffAwTvGEuPzRZP-62" vertex="1" connectable="0">
                    <mxGeometry x="0.1867" y="5" relative="1" as="geometry">
                        <mxPoint as="offset"/>
                    </mxGeometry>
                </mxCell>
                <mxCell id="Kl94CpffAwTvGEuPzRZP-64" value="Update&lt;br&gt;chosen&lt;br&gt;AMBER&lt;br&gt;value" style="ellipse;whiteSpace=wrap;html=1;aspect=fixed;" parent="Kl94CpffAwTvGEuPzRZP-1" vertex="1">
                    <mxGeometry x="730" y="900" width="80" height="80" as="geometry"/>
                </mxCell>
                <mxCell id="Kl94CpffAwTvGEuPzRZP-65" style="edgeStyle=orthogonalEdgeStyle;curved=1;html=1;exitX=0;exitY=0.5;exitDx=0;exitDy=0;labelBackgroundColor=#004C99;fontColor=#FFFFFF;" parent="Kl94CpffAwTvGEuPzRZP-1" source="Kl94CpffAwTvGEuPzRZP-66" target="Kl94CpffAwTvGEuPzRZP-71" edge="1">
                    <mxGeometry relative="1" as="geometry"/>
                </mxCell>
                <mxCell id="Kl94CpffAwTvGEuPzRZP-66" value="Create temporary&lt;br&gt;GREEN&lt;br&gt;counter" style="ellipse;whiteSpace=wrap;html=1;aspect=fixed;" parent="Kl94CpffAwTvGEuPzRZP-1" vertex="1">
                    <mxGeometry x="450" y="579.9599999999999" width="80" height="80" as="geometry"/>
                </mxCell>
                <mxCell id="Kl94CpffAwTvGEuPzRZP-67" style="edgeStyle=orthogonalEdgeStyle;curved=1;html=1;exitX=0;exitY=1;exitDx=0;exitDy=0;entryX=1;entryY=0;entryDx=0;entryDy=0;labelBackgroundColor=#004C99;fontColor=#004C99;" parent="Kl94CpffAwTvGEuPzRZP-1" source="Kl94CpffAwTvGEuPzRZP-71" target="Kl94CpffAwTvGEuPzRZP-78" edge="1">
                    <mxGeometry relative="1" as="geometry">
                        <Array as="points">
                            <mxPoint x="342" y="559.9599999999999"/>
                            <mxPoint x="278" y="559.9599999999999"/>
                        </Array>
                    </mxGeometry>
                </mxCell>
                <mxCell id="Kl94CpffAwTvGEuPzRZP-68" value="&lt;span style=&quot;border-color: var(--border-color); background-color: rgb(204, 229, 255);&quot;&gt;isRelease(&lt;/span&gt;&lt;b style=&quot;border-color: var(--border-color); background-color: rgb(204, 229, 255);&quot;&gt;BTN2&lt;/b&gt;&lt;span style=&quot;border-color: var(--border-color); background-color: rgb(204, 229, 255);&quot;&gt;)&lt;/span&gt;" style="edgeLabel;html=1;align=center;verticalAlign=middle;resizable=0;points=[];fontColor=#004C99;" parent="Kl94CpffAwTvGEuPzRZP-67" vertex="1" connectable="0">
                    <mxGeometry x="0.2948" y="2" relative="1" as="geometry">
                        <mxPoint x="19" as="offset"/>
                    </mxGeometry>
                </mxCell>
                <mxCell id="Kl94CpffAwTvGEuPzRZP-69" style="edgeStyle=orthogonalEdgeStyle;curved=1;html=1;exitX=0;exitY=0.5;exitDx=0;exitDy=0;entryX=0.5;entryY=0;entryDx=0;entryDy=0;labelBackgroundColor=#004C99;fontColor=#004C99;" parent="Kl94CpffAwTvGEuPzRZP-1" source="Kl94CpffAwTvGEuPzRZP-71" target="Kl94CpffAwTvGEuPzRZP-78" edge="1">
                    <mxGeometry relative="1" as="geometry">
                        <Array as="points">
                            <mxPoint x="370" y="529.9599999999999"/>
                            <mxPoint x="250" y="529.9599999999999"/>
                        </Array>
                    </mxGeometry>
                </mxCell>
                <mxCell id="Kl94CpffAwTvGEuPzRZP-70" value="&lt;span style=&quot;color: rgb(255, 255, 255); background-color: rgb(0, 76, 153);&quot;&gt;isPressTimeOut(&lt;/span&gt;&lt;b style=&quot;border-color: var(--border-color); color: rgb(255, 255, 255); background-color: rgb(0, 76, 153);&quot;&gt;BTN2&lt;/b&gt;&lt;span style=&quot;color: rgb(255, 255, 255); background-color: rgb(0, 76, 153);&quot;&gt;)&lt;/span&gt;" style="edgeLabel;html=1;align=center;verticalAlign=middle;resizable=0;points=[];fontColor=#004C99;" parent="Kl94CpffAwTvGEuPzRZP-69" vertex="1" connectable="0">
                    <mxGeometry x="0.1723" y="5" relative="1" as="geometry">
                        <mxPoint x="9" as="offset"/>
                    </mxGeometry>
                </mxCell>
                <mxCell id="Kl94CpffAwTvGEuPzRZP-71" value="Update &lt;br&gt;temporary&lt;br&gt;GREEN&lt;br&gt;counter&lt;br&gt;(pending)" style="ellipse;whiteSpace=wrap;html=1;aspect=fixed;direction=south;" parent="Kl94CpffAwTvGEuPzRZP-1" vertex="1">
                    <mxGeometry x="330" y="579.9599999999999" width="80" height="80" as="geometry"/>
                </mxCell>
                <mxCell id="Kl94CpffAwTvGEuPzRZP-72" style="edgeStyle=orthogonalEdgeStyle;curved=1;html=1;exitX=1;exitY=1;exitDx=0;exitDy=0;entryX=1;entryY=1;entryDx=0;entryDy=0;labelBackgroundColor=#004C99;fontColor=#004C99;" parent="Kl94CpffAwTvGEuPzRZP-1" source="Kl94CpffAwTvGEuPzRZP-78" target="Kl94CpffAwTvGEuPzRZP-71" edge="1">
                    <mxGeometry relative="1" as="geometry">
                        <Array as="points">
                            <mxPoint x="278" y="679.9599999999999"/>
                            <mxPoint x="342" y="679.9599999999999"/>
                        </Array>
                    </mxGeometry>
                </mxCell>
                <mxCell id="Kl94CpffAwTvGEuPzRZP-73" value="&lt;span style=&quot;border-color: var(--border-color); color: rgb(255, 255, 255); background-color: rgb(0, 76, 153);&quot;&gt;isPressed(&lt;/span&gt;&lt;b style=&quot;border-color: var(--border-color); color: rgb(255, 255, 255); background-color: rgb(0, 76, 153);&quot;&gt;BTN2&lt;/b&gt;&lt;span style=&quot;border-color: var(--border-color); color: rgb(255, 255, 255); background-color: rgb(0, 76, 153);&quot;&gt;)&lt;/span&gt;" style="edgeLabel;html=1;align=center;verticalAlign=middle;resizable=0;points=[];fontColor=#004C99;" parent="Kl94CpffAwTvGEuPzRZP-72" vertex="1" connectable="0">
                    <mxGeometry x="-0.2244" relative="1" as="geometry">
                        <mxPoint x="14" as="offset"/>
                    </mxGeometry>
                </mxCell>
                <mxCell id="Kl94CpffAwTvGEuPzRZP-74" style="edgeStyle=orthogonalEdgeStyle;curved=1;html=1;exitX=0.5;exitY=1;exitDx=0;exitDy=0;entryX=0.5;entryY=0;entryDx=0;entryDy=0;labelBackgroundColor=#004C99;fontColor=#004C99;" parent="Kl94CpffAwTvGEuPzRZP-1" source="Kl94CpffAwTvGEuPzRZP-78" target="Kl94CpffAwTvGEuPzRZP-81" edge="1">
                    <mxGeometry relative="1" as="geometry"/>
                </mxCell>
                <mxCell id="Kl94CpffAwTvGEuPzRZP-75" value="&lt;span style=&quot;border-color: var(--border-color); color: rgb(255, 255, 255); background-color: rgb(0, 76, 153);&quot;&gt;isPressed(&lt;/span&gt;&lt;b style=&quot;border-color: var(--border-color); color: rgb(255, 255, 255); background-color: rgb(0, 76, 153);&quot;&gt;BTN3&lt;/b&gt;&lt;span style=&quot;border-color: var(--border-color); color: rgb(255, 255, 255); background-color: rgb(0, 76, 153);&quot;&gt;)&lt;/span&gt;" style="edgeLabel;html=1;align=center;verticalAlign=middle;resizable=0;points=[];fontColor=#004C99;" parent="Kl94CpffAwTvGEuPzRZP-74" vertex="1" connectable="0">
                    <mxGeometry x="0.1117" y="2" relative="1" as="geometry">
                        <mxPoint x="-2" y="2" as="offset"/>
                    </mxGeometry>
                </mxCell>
                <mxCell id="Kl94CpffAwTvGEuPzRZP-76" style="edgeStyle=orthogonalEdgeStyle;curved=1;html=1;exitX=0;exitY=0.5;exitDx=0;exitDy=0;entryX=0;entryY=0.5;entryDx=0;entryDy=0;labelBackgroundColor=#004C99;fontColor=#004C99;" parent="Kl94CpffAwTvGEuPzRZP-1" source="Kl94CpffAwTvGEuPzRZP-78" target="Kl94CpffAwTvGEuPzRZP-30" edge="1">
                    <mxGeometry relative="1" as="geometry"/>
                </mxCell>
                <mxCell id="Kl94CpffAwTvGEuPzRZP-77" value="&lt;span style=&quot;border-color: var(--border-color); color: rgb(255, 255, 255); background-color: rgb(0, 76, 153);&quot;&gt;isPressed(&lt;/span&gt;&lt;b style=&quot;border-color: var(--border-color); color: rgb(255, 255, 255); background-color: rgb(0, 76, 153);&quot;&gt;BTN1&lt;/b&gt;&lt;span style=&quot;border-color: var(--border-color); color: rgb(255, 255, 255); background-color: rgb(0, 76, 153);&quot;&gt;)&lt;/span&gt;" style="edgeLabel;html=1;align=center;verticalAlign=middle;resizable=0;points=[];fontColor=#004C99;" parent="Kl94CpffAwTvGEuPzRZP-76" vertex="1" connectable="0">
                    <mxGeometry x="0.1947" y="-13" relative="1" as="geometry">
                        <mxPoint x="18" y="-3" as="offset"/>
                    </mxGeometry>
                </mxCell>
                <mxCell id="Kl94CpffAwTvGEuPzRZP-78" value="Update&lt;br style=&quot;border-color: var(--border-color);&quot;&gt;temporary&lt;br style=&quot;border-color: var(--border-color);&quot;&gt;GREEN&lt;br&gt;counter&lt;br style=&quot;border-color: var(--border-color);&quot;&gt;(execute)" style="ellipse;whiteSpace=wrap;html=1;aspect=fixed;" parent="Kl94CpffAwTvGEuPzRZP-1" vertex="1">
                    <mxGeometry x="210" y="579.9599999999999" width="80" height="80" as="geometry"/>
                </mxCell>
                <mxCell id="Kl94CpffAwTvGEuPzRZP-79" style="edgeStyle=orthogonalEdgeStyle;curved=1;html=1;exitX=1;exitY=0.5;exitDx=0;exitDy=0;entryX=0.5;entryY=1;entryDx=0;entryDy=0;labelBackgroundColor=#004C99;fontColor=#004C99;" parent="Kl94CpffAwTvGEuPzRZP-1" source="Kl94CpffAwTvGEuPzRZP-81" target="Kl94CpffAwTvGEuPzRZP-18" edge="1">
                    <mxGeometry relative="1" as="geometry"/>
                </mxCell>
                <mxCell id="Kl94CpffAwTvGEuPzRZP-80" value="&lt;span style=&quot;border-color: var(--border-color); background-color: rgb(204, 229, 255);&quot;&gt;isRelease(&lt;/span&gt;&lt;b style=&quot;border-color: var(--border-color); background-color: rgb(204, 229, 255);&quot;&gt;BTN3&lt;/b&gt;&lt;span style=&quot;border-color: var(--border-color); background-color: rgb(204, 229, 255);&quot;&gt;)&lt;/span&gt;" style="edgeLabel;html=1;align=center;verticalAlign=middle;resizable=0;points=[];fontColor=#004C99;" parent="Kl94CpffAwTvGEuPzRZP-79" vertex="1" connectable="0">
                    <mxGeometry x="-0.167" y="17" relative="1" as="geometry">
                        <mxPoint x="-1" as="offset"/>
                    </mxGeometry>
                </mxCell>
                <mxCell id="Kl94CpffAwTvGEuPzRZP-81" value="Update&lt;br&gt;chosen&lt;br&gt;GREEN&lt;br&gt;value" style="ellipse;whiteSpace=wrap;html=1;aspect=fixed;" parent="Kl94CpffAwTvGEuPzRZP-1" vertex="1">
                    <mxGeometry x="210" y="733.16" width="80" height="80" as="geometry"/>
                </mxCell>
                <mxCell id="BKYjC9Su2Jfiyq79QSoa-0" value="" style="endArrow=classic;html=1;dashed=1;" parent="Kl94CpffAwTvGEuPzRZP-1" target="Kl94CpffAwTvGEuPzRZP-3" edge="1">
                    <mxGeometry width="50" height="50" relative="1" as="geometry">
                        <mxPoint x="508.0000000000001" y="299" as="sourcePoint"/>
                        <mxPoint x="570" y="299" as="targetPoint"/>
                    </mxGeometry>
                </mxCell>
            </root>
        </mxGraphModel>
    </diagram>
    <diagram id="z0PAOZ6UlYjL23TxZdkW" name="BTN1">
        <mxGraphModel dx="1214" dy="508" grid="0" gridSize="10" guides="1" tooltips="1" connect="1" arrows="1" fold="1" page="1" pageScale="1" pageWidth="850" pageHeight="1100" math="0" shadow="0">
            <root>
                <mxCell id="0"/>
                <mxCell id="1" parent="0"/>
                <mxCell id="106" value="&lt;span style=&quot;background-color: rgb(0, 76, 153);&quot;&gt;&lt;font color=&quot;#ffffff&quot;&gt;isPressed(&lt;b&gt;BTN1&lt;/b&gt;)&lt;/font&gt;&lt;/span&gt;" style="edgeStyle=none;html=1;exitX=1;exitY=0.5;exitDx=0;exitDy=0;" parent="1" source="9" target="29" edge="1">
                    <mxGeometry relative="1" as="geometry">
                        <mxPoint as="offset"/>
                    </mxGeometry>
                </mxCell>
                <mxCell id="9" value="&lt;b&gt;&lt;font color=&quot;#ffffff&quot;&gt;Mode 1&lt;/font&gt;&lt;/b&gt;" style="ellipse;whiteSpace=wrap;html=1;aspect=fixed;fillColor=#004C99;strokeColor=#56517E;" parent="1" vertex="1">
                    <mxGeometry x="170" y="210" width="80" height="80" as="geometry"/>
                </mxCell>
                <mxCell id="100" style="edgeStyle=orthogonalEdgeStyle;curved=1;html=1;exitX=0.5;exitY=1;exitDx=0;exitDy=0;entryX=0.5;entryY=0;entryDx=0;entryDy=0;fontColor=#004C99;" parent="1" source="10" target="92" edge="1">
                    <mxGeometry relative="1" as="geometry">
                        <Array as="points">
                            <mxPoint x="610" y="330"/>
                            <mxPoint x="610" y="330"/>
                        </Array>
                    </mxGeometry>
                </mxCell>
                <mxCell id="107" value="&lt;span style=&quot;color: rgb(255, 255, 255); background-color: rgb(0, 76, 153);&quot;&gt;isPressed(&lt;/span&gt;&lt;b style=&quot;border-color: var(--border-color); color: rgb(255, 255, 255); background-color: rgb(0, 76, 153);&quot;&gt;BTN1&lt;/b&gt;&lt;span style=&quot;color: rgb(255, 255, 255); background-color: rgb(0, 76, 153);&quot;&gt;)&lt;/span&gt;" style="edgeLabel;html=1;align=center;verticalAlign=middle;resizable=0;points=[];" parent="100" vertex="1" connectable="0">
                    <mxGeometry x="-0.3658" y="-3" relative="1" as="geometry">
                        <mxPoint x="3" y="15" as="offset"/>
                    </mxGeometry>
                </mxCell>
                <mxCell id="10" value="&lt;b&gt;&lt;font color=&quot;#ffffff&quot;&gt;Mode 2&lt;/font&gt;&lt;/b&gt;" style="ellipse;whiteSpace=wrap;html=1;aspect=fixed;fillColor=#004C99;strokeColor=#56517E;" parent="1" vertex="1">
                    <mxGeometry x="570" y="210" width="80" height="80" as="geometry"/>
                </mxCell>
                <mxCell id="102" style="edgeStyle=orthogonalEdgeStyle;curved=1;html=1;exitX=0;exitY=0.5;exitDx=0;exitDy=0;entryX=1;entryY=0.5;entryDx=0;entryDy=0;fontColor=#004C99;" parent="1" source="11" target="96" edge="1">
                    <mxGeometry relative="1" as="geometry"/>
                </mxCell>
                <mxCell id="108" value="&lt;span style=&quot;color: rgb(255, 255, 255); background-color: rgb(0, 76, 153);&quot;&gt;isPressed(&lt;/span&gt;&lt;b style=&quot;border-color: var(--border-color); color: rgb(255, 255, 255); background-color: rgb(0, 76, 153);&quot;&gt;BTN1&lt;/b&gt;&lt;span style=&quot;color: rgb(255, 255, 255); background-color: rgb(0, 76, 153);&quot;&gt;)&lt;/span&gt;" style="edgeLabel;html=1;align=center;verticalAlign=middle;resizable=0;points=[];" parent="102" vertex="1" connectable="0">
                    <mxGeometry x="0.2015" relative="1" as="geometry">
                        <mxPoint x="23" as="offset"/>
                    </mxGeometry>
                </mxCell>
                <mxCell id="11" value="&lt;b&gt;&lt;font color=&quot;#ffffff&quot;&gt;Mode 3&lt;/font&gt;&lt;/b&gt;" style="ellipse;whiteSpace=wrap;html=1;aspect=fixed;fillColor=#004C99;strokeColor=#56517E;" parent="1" vertex="1">
                    <mxGeometry x="570" y="529.6999999999999" width="80" height="80" as="geometry"/>
                </mxCell>
                <mxCell id="104" style="edgeStyle=orthogonalEdgeStyle;curved=1;html=1;exitX=0.5;exitY=0;exitDx=0;exitDy=0;fontColor=#004C99;" parent="1" source="12" target="97" edge="1">
                    <mxGeometry relative="1" as="geometry">
                        <Array as="points">
                            <mxPoint x="210" y="630"/>
                            <mxPoint x="210" y="630"/>
                        </Array>
                    </mxGeometry>
                </mxCell>
                <mxCell id="109" value="&lt;span style=&quot;color: rgb(255, 255, 255); background-color: rgb(0, 76, 153);&quot;&gt;isPressed(&lt;/span&gt;&lt;b style=&quot;border-color: var(--border-color); color: rgb(255, 255, 255); background-color: rgb(0, 76, 153);&quot;&gt;BTN1&lt;/b&gt;&lt;span style=&quot;color: rgb(255, 255, 255); background-color: rgb(0, 76, 153);&quot;&gt;)&lt;/span&gt;" style="edgeLabel;html=1;align=center;verticalAlign=middle;resizable=0;points=[];" parent="104" vertex="1" connectable="0">
                    <mxGeometry x="0.3778" y="-1" relative="1" as="geometry">
                        <mxPoint x="-1" y="-47" as="offset"/>
                    </mxGeometry>
                </mxCell>
                <mxCell id="12" value="&lt;b&gt;&lt;font color=&quot;#ffffff&quot;&gt;Mode 4&lt;/font&gt;&lt;/b&gt;" style="ellipse;whiteSpace=wrap;html=1;aspect=fixed;fillColor=#004C99;strokeColor=#56517E;" parent="1" vertex="1">
                    <mxGeometry x="170" y="529.6999999999999" width="80" height="80" as="geometry"/>
                </mxCell>
                <mxCell id="99" style="edgeStyle=orthogonalEdgeStyle;curved=1;html=1;exitX=1;exitY=0.5;exitDx=0;exitDy=0;fontColor=#004C99;" parent="1" source="29" target="10" edge="1">
                    <mxGeometry relative="1" as="geometry">
                        <Array as="points">
                            <mxPoint x="510" y="250"/>
                            <mxPoint x="510" y="250"/>
                        </Array>
                    </mxGeometry>
                </mxCell>
                <mxCell id="121" value="&lt;font style=&quot;background-color: rgb(204, 229, 255);&quot; color=&quot;#004c99&quot;&gt;isRelease(&lt;b&gt;BTN1&lt;/b&gt;)&lt;/font&gt;" style="edgeLabel;html=1;align=center;verticalAlign=middle;resizable=0;points=[];fontColor=#FFFFFF;" parent="99" vertex="1" connectable="0">
                    <mxGeometry x="0.1613" y="1" relative="1" as="geometry">
                        <mxPoint x="-18" y="1" as="offset"/>
                    </mxGeometry>
                </mxCell>
                <mxCell id="29" value="Mode 1&lt;br&gt;(pressed)" style="ellipse;whiteSpace=wrap;html=1;aspect=fixed;fillColor=#CCE5FF;" parent="1" vertex="1">
                    <mxGeometry x="370" y="210" width="80" height="80" as="geometry"/>
                </mxCell>
                <mxCell id="101" style="edgeStyle=orthogonalEdgeStyle;curved=1;html=1;exitX=0.5;exitY=1;exitDx=0;exitDy=0;fontColor=#004C99;" parent="1" source="92" target="11" edge="1">
                    <mxGeometry relative="1" as="geometry"/>
                </mxCell>
                <mxCell id="125" value="&lt;span style=&quot;background-color: rgb(204, 229, 255);&quot;&gt;isRelease(&lt;/span&gt;&lt;b style=&quot;border-color: var(--border-color); background-color: rgb(204, 229, 255);&quot;&gt;BTN1&lt;/b&gt;&lt;span style=&quot;background-color: rgb(204, 229, 255);&quot;&gt;)&lt;/span&gt;" style="edgeLabel;html=1;align=center;verticalAlign=middle;resizable=0;points=[];fontColor=#004C99;" parent="101" vertex="1" connectable="0">
                    <mxGeometry x="-0.1844" y="1" relative="1" as="geometry">
                        <mxPoint x="-1" y="8" as="offset"/>
                    </mxGeometry>
                </mxCell>
                <mxCell id="92" value="Mode 2&lt;br&gt;(pressed)" style="ellipse;whiteSpace=wrap;html=1;aspect=fixed;fillColor=#CCE5FF;" parent="1" vertex="1">
                    <mxGeometry x="570" y="370" width="80" height="80" as="geometry"/>
                </mxCell>
                <mxCell id="103" style="edgeStyle=orthogonalEdgeStyle;curved=1;html=1;exitX=0;exitY=0.5;exitDx=0;exitDy=0;entryX=1;entryY=0.5;entryDx=0;entryDy=0;fontColor=#004C99;" parent="1" source="96" target="12" edge="1">
                    <mxGeometry relative="1" as="geometry"/>
                </mxCell>
                <mxCell id="126" value="&lt;span style=&quot;border-color: var(--border-color); background-color: rgb(204, 229, 255);&quot;&gt;isRelease(&lt;/span&gt;&lt;b style=&quot;border-color: var(--border-color); background-color: rgb(204, 229, 255);&quot;&gt;BTN1&lt;/b&gt;&lt;span style=&quot;border-color: var(--border-color); background-color: rgb(204, 229, 255);&quot;&gt;)&lt;/span&gt;" style="edgeLabel;html=1;align=center;verticalAlign=middle;resizable=0;points=[];fontColor=#004C99;" parent="103" vertex="1" connectable="0">
                    <mxGeometry x="0.2033" relative="1" as="geometry">
                        <mxPoint x="12" as="offset"/>
                    </mxGeometry>
                </mxCell>
                <mxCell id="96" value="Mode 3&lt;br&gt;(pressed)" style="ellipse;whiteSpace=wrap;html=1;aspect=fixed;fillColor=#CCE5FF;" parent="1" vertex="1">
                    <mxGeometry x="370" y="529.6999999999999" width="80" height="80" as="geometry"/>
                </mxCell>
                <mxCell id="105" style="edgeStyle=orthogonalEdgeStyle;curved=1;html=1;exitX=0.5;exitY=0;exitDx=0;exitDy=0;entryX=0.5;entryY=1;entryDx=0;entryDy=0;fontColor=#004C99;" parent="1" source="97" target="9" edge="1">
                    <mxGeometry relative="1" as="geometry"/>
                </mxCell>
                <mxCell id="127" value="&lt;span style=&quot;border-color: var(--border-color); background-color: rgb(204, 229, 255);&quot;&gt;isRelease(&lt;/span&gt;&lt;b style=&quot;border-color: var(--border-color); background-color: rgb(204, 229, 255);&quot;&gt;BTN1&lt;/b&gt;&lt;span style=&quot;border-color: var(--border-color); background-color: rgb(204, 229, 255);&quot;&gt;)&lt;/span&gt;" style="edgeLabel;html=1;align=center;verticalAlign=middle;resizable=0;points=[];fontColor=#004C99;" parent="105" vertex="1" connectable="0">
                    <mxGeometry x="-0.0566" y="-2" relative="1" as="geometry">
                        <mxPoint x="-2" y="-2" as="offset"/>
                    </mxGeometry>
                </mxCell>
                <mxCell id="97" value="Mode 4&lt;br&gt;(pressed)" style="ellipse;whiteSpace=wrap;html=1;aspect=fixed;fillColor=#CCE5FF;" parent="1" vertex="1">
                    <mxGeometry x="170" y="370" width="80" height="80" as="geometry"/>
                </mxCell>
                <mxCell id="ItoEDR832YL8L4yGp0WN-128" value="" style="endArrow=classic;html=1;dashed=1;" parent="1" target="9" edge="1">
                    <mxGeometry width="50" height="50" relative="1" as="geometry">
                        <mxPoint x="120" y="160" as="sourcePoint"/>
                        <mxPoint x="430" y="340" as="targetPoint"/>
                    </mxGeometry>
                </mxCell>
            </root>
        </mxGraphModel>
    </diagram>
    <diagram name="EDIT" id="2tCjU9RWt632WdiK3kvk">
        <mxGraphModel dx="624" dy="617" grid="0" gridSize="10" guides="1" tooltips="1" connect="1" arrows="1" fold="1" page="1" pageScale="1" pageWidth="850" pageHeight="1100" math="0" shadow="0">
            <root>
                <mxCell id="scy36RCsKYthUIsThMJt-0"/>
                <mxCell id="scy36RCsKYthUIsThMJt-1" parent="scy36RCsKYthUIsThMJt-0"/>
                <mxCell id="scy36RCsKYthUIsThMJt-4" style="edgeStyle=orthogonalEdgeStyle;curved=1;html=1;exitX=0.5;exitY=1;exitDx=0;exitDy=0;entryX=0.5;entryY=0;entryDx=0;entryDy=0;fontColor=#004C99;" parent="scy36RCsKYthUIsThMJt-1" source="scy36RCsKYthUIsThMJt-8" target="scy36RCsKYthUIsThMJt-24" edge="1">
                    <mxGeometry relative="1" as="geometry">
                        <Array as="points">
                            <mxPoint x="1120" y="380"/>
                            <mxPoint x="1120" y="380"/>
                        </Array>
                    </mxGeometry>
                </mxCell>
                <mxCell id="scy36RCsKYthUIsThMJt-5" value="&lt;span style=&quot;color: rgb(255, 255, 255); background-color: rgb(0, 76, 153);&quot;&gt;isPressed(&lt;/span&gt;&lt;b style=&quot;border-color: var(--border-color); color: rgb(255, 255, 255); background-color: rgb(0, 76, 153);&quot;&gt;BTN1&lt;/b&gt;&lt;span style=&quot;color: rgb(255, 255, 255); background-color: rgb(0, 76, 153);&quot;&gt;)&lt;/span&gt;" style="edgeLabel;html=1;align=center;verticalAlign=middle;resizable=0;points=[];" parent="scy36RCsKYthUIsThMJt-4" vertex="1" connectable="0">
                    <mxGeometry x="-0.3658" y="-3" relative="1" as="geometry">
                        <mxPoint x="3" y="15" as="offset"/>
                    </mxGeometry>
                </mxCell>
                <mxCell id="scy36RCsKYthUIsThMJt-6" style="edgeStyle=orthogonalEdgeStyle;curved=1;html=1;exitX=0.5;exitY=0;exitDx=0;exitDy=0;entryX=0.5;entryY=1;entryDx=0;entryDy=0;labelBackgroundColor=#004C99;fontColor=#FFFFFF;" parent="scy36RCsKYthUIsThMJt-1" source="scy36RCsKYthUIsThMJt-8" target="scy36RCsKYthUIsThMJt-32" edge="1">
                    <mxGeometry relative="1" as="geometry">
                        <Array as="points">
                            <mxPoint x="1120" y="240"/>
                            <mxPoint x="1120" y="240"/>
                        </Array>
                    </mxGeometry>
                </mxCell>
                <mxCell id="scy36RCsKYthUIsThMJt-7" value="&lt;span style=&quot;background-color: rgb(0, 76, 153);&quot;&gt;isPressed(&lt;/span&gt;&lt;b style=&quot;border-color: var(--border-color); background-color: rgb(0, 76, 153);&quot;&gt;BTN2&lt;/b&gt;&lt;span style=&quot;background-color: rgb(0, 76, 153);&quot;&gt;)&lt;/span&gt;" style="edgeLabel;html=1;align=center;verticalAlign=middle;resizable=0;points=[];fontColor=#FFFFFF;" parent="scy36RCsKYthUIsThMJt-6" vertex="1" connectable="0">
                    <mxGeometry x="0.1138" relative="1" as="geometry">
                        <mxPoint y="7" as="offset"/>
                    </mxGeometry>
                </mxCell>
                <mxCell id="scy36RCsKYthUIsThMJt-8" value="&lt;b&gt;&lt;font color=&quot;#ffffff&quot;&gt;Currrent mode&lt;/font&gt;&lt;/b&gt;" style="ellipse;whiteSpace=wrap;html=1;aspect=fixed;fillColor=#004C99;strokeColor=#56517E;" parent="scy36RCsKYthUIsThMJt-1" vertex="1">
                    <mxGeometry x="1080" y="260" width="80" height="80" as="geometry"/>
                </mxCell>
                <mxCell id="scy36RCsKYthUIsThMJt-13" value="&lt;b&gt;&lt;font color=&quot;#ffffff&quot;&gt;Next mode&lt;/font&gt;&lt;/b&gt;" style="ellipse;whiteSpace=wrap;html=1;aspect=fixed;fillColor=#004C99;strokeColor=#56517E;" parent="scy36RCsKYthUIsThMJt-1" vertex="1">
                    <mxGeometry x="1080" y="579.6999999999999" width="80" height="80" as="geometry"/>
                </mxCell>
                <mxCell id="scy36RCsKYthUIsThMJt-22" style="edgeStyle=orthogonalEdgeStyle;curved=1;html=1;exitX=0.5;exitY=1;exitDx=0;exitDy=0;fontColor=#004C99;" parent="scy36RCsKYthUIsThMJt-1" source="scy36RCsKYthUIsThMJt-24" target="scy36RCsKYthUIsThMJt-13" edge="1">
                    <mxGeometry relative="1" as="geometry"/>
                </mxCell>
                <mxCell id="scy36RCsKYthUIsThMJt-23" value="&lt;span style=&quot;background-color: rgb(204, 229, 255);&quot;&gt;isRelease(&lt;/span&gt;&lt;b style=&quot;border-color: var(--border-color); background-color: rgb(204, 229, 255);&quot;&gt;BTN1&lt;/b&gt;&lt;span style=&quot;background-color: rgb(204, 229, 255);&quot;&gt;)&lt;/span&gt;" style="edgeLabel;html=1;align=center;verticalAlign=middle;resizable=0;points=[];fontColor=#004C99;" parent="scy36RCsKYthUIsThMJt-22" vertex="1" connectable="0">
                    <mxGeometry x="-0.1844" y="1" relative="1" as="geometry">
                        <mxPoint x="-1" y="8" as="offset"/>
                    </mxGeometry>
                </mxCell>
                <mxCell id="scy36RCsKYthUIsThMJt-24" value="Current mode&lt;br&gt;(pressed)" style="ellipse;whiteSpace=wrap;html=1;aspect=fixed;fillColor=#CCE5FF;" parent="scy36RCsKYthUIsThMJt-1" vertex="1">
                    <mxGeometry x="1080" y="420" width="80" height="80" as="geometry"/>
                </mxCell>
                <mxCell id="scy36RCsKYthUIsThMJt-31" style="edgeStyle=orthogonalEdgeStyle;curved=1;html=1;exitX=1;exitY=0.5;exitDx=0;exitDy=0;labelBackgroundColor=#004C99;fontColor=#FFFFFF;" parent="scy36RCsKYthUIsThMJt-1" source="scy36RCsKYthUIsThMJt-32" target="scy36RCsKYthUIsThMJt-37" edge="1">
                    <mxGeometry relative="1" as="geometry"/>
                </mxCell>
                <mxCell id="scy36RCsKYthUIsThMJt-32" value="Create temporary&lt;br&gt;LED counter" style="ellipse;whiteSpace=wrap;html=1;aspect=fixed;" parent="scy36RCsKYthUIsThMJt-1" vertex="1">
                    <mxGeometry x="1080" y="140" width="80" height="80" as="geometry"/>
                </mxCell>
                <mxCell id="scy36RCsKYthUIsThMJt-33" style="edgeStyle=orthogonalEdgeStyle;curved=1;html=1;exitX=0;exitY=0;exitDx=0;exitDy=0;entryX=0;entryY=0;entryDx=0;entryDy=0;labelBackgroundColor=#004C99;fontColor=#FFFFFF;" parent="scy36RCsKYthUIsThMJt-1" source="scy36RCsKYthUIsThMJt-37" target="scy36RCsKYthUIsThMJt-44" edge="1">
                    <mxGeometry relative="1" as="geometry">
                        <Array as="points">
                            <mxPoint x="1268" y="120"/>
                            <mxPoint x="1332" y="120"/>
                        </Array>
                    </mxGeometry>
                </mxCell>
                <mxCell id="scy36RCsKYthUIsThMJt-34" value="&lt;span style=&quot;color: rgb(0, 76, 153); background-color: rgb(204, 229, 255);&quot;&gt;isRelease(&lt;/span&gt;&lt;b style=&quot;border-color: var(--border-color); color: rgb(0, 76, 153); background-color: rgb(204, 229, 255);&quot;&gt;BTN2&lt;/b&gt;&lt;span style=&quot;color: rgb(0, 76, 153); background-color: rgb(204, 229, 255);&quot;&gt;)&lt;/span&gt;" style="edgeLabel;html=1;align=center;verticalAlign=middle;resizable=0;points=[];fontColor=#FFFFFF;" parent="scy36RCsKYthUIsThMJt-33" vertex="1" connectable="0">
                    <mxGeometry x="-0.0918" y="-1" relative="1" as="geometry">
                        <mxPoint x="6" as="offset"/>
                    </mxGeometry>
                </mxCell>
                <mxCell id="scy36RCsKYthUIsThMJt-35" style="edgeStyle=orthogonalEdgeStyle;curved=1;html=1;exitX=0;exitY=0.5;exitDx=0;exitDy=0;entryX=0.5;entryY=0;entryDx=0;entryDy=0;labelBackgroundColor=#004C99;fontColor=#FFFFFF;" parent="scy36RCsKYthUIsThMJt-1" source="scy36RCsKYthUIsThMJt-37" target="scy36RCsKYthUIsThMJt-44" edge="1">
                    <mxGeometry relative="1" as="geometry">
                        <Array as="points">
                            <mxPoint x="1240" y="80"/>
                            <mxPoint x="1360" y="80"/>
                        </Array>
                    </mxGeometry>
                </mxCell>
                <mxCell id="scy36RCsKYthUIsThMJt-36" value="&lt;span style=&quot;border-color: var(--border-color); background-color: rgb(0, 76, 153);&quot;&gt;isPressTimeOut(&lt;b&gt;BTN2&lt;/b&gt;)&lt;br&gt;&lt;/span&gt;" style="edgeLabel;html=1;align=center;verticalAlign=middle;resizable=0;points=[];fontColor=#FFFFFF;" parent="scy36RCsKYthUIsThMJt-35" vertex="1" connectable="0">
                    <mxGeometry x="-0.1293" relative="1" as="geometry">
                        <mxPoint x="16" as="offset"/>
                    </mxGeometry>
                </mxCell>
                <mxCell id="scy36RCsKYthUIsThMJt-37" value="Update &lt;br&gt;temporary&lt;br&gt;LED counter&lt;br&gt;(pending)" style="ellipse;whiteSpace=wrap;html=1;aspect=fixed;direction=south;" parent="scy36RCsKYthUIsThMJt-1" vertex="1">
                    <mxGeometry x="1200" y="140" width="80" height="80" as="geometry"/>
                </mxCell>
                <mxCell id="scy36RCsKYthUIsThMJt-38" style="edgeStyle=orthogonalEdgeStyle;curved=1;html=1;exitX=0;exitY=1;exitDx=0;exitDy=0;entryX=1;entryY=0;entryDx=0;entryDy=0;labelBackgroundColor=#004C99;fontColor=#FFFFFF;" parent="scy36RCsKYthUIsThMJt-1" source="scy36RCsKYthUIsThMJt-44" target="scy36RCsKYthUIsThMJt-37" edge="1">
                    <mxGeometry relative="1" as="geometry">
                        <Array as="points">
                            <mxPoint x="1332" y="240"/>
                            <mxPoint x="1268" y="240"/>
                        </Array>
                    </mxGeometry>
                </mxCell>
                <mxCell id="scy36RCsKYthUIsThMJt-39" value="&lt;span style=&quot;border-color: var(--border-color); background-color: rgb(0, 76, 153);&quot;&gt;isPressed(&lt;/span&gt;&lt;b style=&quot;border-color: var(--border-color); background-color: rgb(0, 76, 153);&quot;&gt;BTN2&lt;/b&gt;&lt;span style=&quot;border-color: var(--border-color); background-color: rgb(0, 76, 153);&quot;&gt;)&lt;/span&gt;" style="edgeLabel;html=1;align=center;verticalAlign=middle;resizable=0;points=[];fontColor=#FFFFFF;" parent="scy36RCsKYthUIsThMJt-38" vertex="1" connectable="0">
                    <mxGeometry x="0.2155" y="-4" relative="1" as="geometry">
                        <mxPoint x="14" y="4" as="offset"/>
                    </mxGeometry>
                </mxCell>
                <mxCell id="scy36RCsKYthUIsThMJt-40" style="edgeStyle=orthogonalEdgeStyle;curved=1;html=1;exitX=0.5;exitY=1;exitDx=0;exitDy=0;labelBackgroundColor=#004C99;fontColor=#FFFFFF;" parent="scy36RCsKYthUIsThMJt-1" source="scy36RCsKYthUIsThMJt-44" target="scy36RCsKYthUIsThMJt-47" edge="1">
                    <mxGeometry relative="1" as="geometry"/>
                </mxCell>
                <mxCell id="scy36RCsKYthUIsThMJt-41" value="&lt;span style=&quot;border-color: var(--border-color); background-color: rgb(0, 76, 153);&quot;&gt;isPressed(&lt;/span&gt;&lt;b style=&quot;border-color: var(--border-color); background-color: rgb(0, 76, 153);&quot;&gt;BTN3&lt;/b&gt;&lt;span style=&quot;border-color: var(--border-color); background-color: rgb(0, 76, 153);&quot;&gt;)&lt;/span&gt;" style="edgeLabel;html=1;align=center;verticalAlign=middle;resizable=0;points=[];fontColor=#FFFFFF;" parent="scy36RCsKYthUIsThMJt-40" vertex="1" connectable="0">
                    <mxGeometry x="-0.2185" y="1" relative="1" as="geometry">
                        <mxPoint x="-1" y="19" as="offset"/>
                    </mxGeometry>
                </mxCell>
                <mxCell id="scy36RCsKYthUIsThMJt-42" style="edgeStyle=orthogonalEdgeStyle;curved=1;html=1;exitX=1;exitY=0.5;exitDx=0;exitDy=0;entryX=1;entryY=0.5;entryDx=0;entryDy=0;labelBackgroundColor=#004C99;fontColor=#004C99;" parent="scy36RCsKYthUIsThMJt-1" source="scy36RCsKYthUIsThMJt-44" target="scy36RCsKYthUIsThMJt-24" edge="1">
                    <mxGeometry relative="1" as="geometry">
                        <Array as="points">
                            <mxPoint x="1480" y="180"/>
                            <mxPoint x="1480" y="460"/>
                        </Array>
                    </mxGeometry>
                </mxCell>
                <mxCell id="scy36RCsKYthUIsThMJt-43" value="&lt;span style=&quot;color: rgb(255, 255, 255); background-color: rgb(0, 76, 153);&quot;&gt;isPressed(&lt;/span&gt;&lt;b style=&quot;border-color: var(--border-color); color: rgb(255, 255, 255); background-color: rgb(0, 76, 153);&quot;&gt;BTN1&lt;/b&gt;&lt;span style=&quot;color: rgb(255, 255, 255); background-color: rgb(0, 76, 153);&quot;&gt;)&lt;/span&gt;" style="edgeLabel;html=1;align=center;verticalAlign=middle;resizable=0;points=[];fontColor=#004C99;" parent="scy36RCsKYthUIsThMJt-42" vertex="1" connectable="0">
                    <mxGeometry x="0.3812" y="-20" relative="1" as="geometry">
                        <mxPoint as="offset"/>
                    </mxGeometry>
                </mxCell>
                <mxCell id="scy36RCsKYthUIsThMJt-44" value="Update&lt;br style=&quot;border-color: var(--border-color);&quot;&gt;temporary&lt;br style=&quot;border-color: var(--border-color);&quot;&gt;LED counter&lt;br style=&quot;border-color: var(--border-color);&quot;&gt;(execute)" style="ellipse;whiteSpace=wrap;html=1;aspect=fixed;" parent="scy36RCsKYthUIsThMJt-1" vertex="1">
                    <mxGeometry x="1320" y="140" width="80" height="80" as="geometry"/>
                </mxCell>
                <mxCell id="scy36RCsKYthUIsThMJt-45" style="edgeStyle=orthogonalEdgeStyle;curved=1;html=1;exitX=0;exitY=1;exitDx=0;exitDy=0;entryX=1;entryY=0.5;entryDx=0;entryDy=0;labelBackgroundColor=#004C99;fontColor=#FFFFFF;" parent="scy36RCsKYthUIsThMJt-1" source="scy36RCsKYthUIsThMJt-47" target="scy36RCsKYthUIsThMJt-8" edge="1">
                    <mxGeometry relative="1" as="geometry"/>
                </mxCell>
                <mxCell id="scy36RCsKYthUIsThMJt-46" value="&lt;span style=&quot;border-color: var(--border-color); color: rgb(0, 76, 153); background-color: rgb(204, 229, 255);&quot;&gt;isRelease(&lt;/span&gt;&lt;b style=&quot;border-color: var(--border-color); color: rgb(0, 76, 153); background-color: rgb(204, 229, 255);&quot;&gt;BTN3&lt;/b&gt;&lt;span style=&quot;border-color: var(--border-color); color: rgb(0, 76, 153); background-color: rgb(204, 229, 255);&quot;&gt;)&lt;/span&gt;" style="edgeLabel;html=1;align=center;verticalAlign=middle;resizable=0;points=[];fontColor=#FFFFFF;" parent="scy36RCsKYthUIsThMJt-45" vertex="1" connectable="0">
                    <mxGeometry x="0.2011" y="13" relative="1" as="geometry">
                        <mxPoint as="offset"/>
                    </mxGeometry>
                </mxCell>
                <mxCell id="scy36RCsKYthUIsThMJt-47" value="Update&lt;br&gt;chosen&lt;br&gt;LED value" style="ellipse;whiteSpace=wrap;html=1;aspect=fixed;" parent="scy36RCsKYthUIsThMJt-1" vertex="1">
                    <mxGeometry x="1320" y="300" width="80" height="80" as="geometry"/>
                </mxCell>
                <mxCell id="x2PX5rUz9hY_rEuSIgqX-0" value="" style="endArrow=classic;html=1;dashed=1;entryX=0;entryY=0.5;entryDx=0;entryDy=0;" parent="scy36RCsKYthUIsThMJt-1" target="scy36RCsKYthUIsThMJt-8" edge="1">
                    <mxGeometry width="50" height="50" relative="1" as="geometry">
                        <mxPoint x="1018" y="300" as="sourcePoint"/>
                        <mxPoint x="1079.995728752538" y="291.7157287525381" as="targetPoint"/>
                    </mxGeometry>
                </mxCell>
            </root>
        </mxGraphModel>
    </diagram>
    <diagram name="TRAFFIC" id="L9EECT-toUodPUoqrxFe">
        <mxGraphModel dx="182" dy="432" grid="0" gridSize="10" guides="1" tooltips="1" connect="1" arrows="1" fold="1" page="1" pageScale="1" pageWidth="850" pageHeight="1100" math="0" shadow="0">
            <root>
                <mxCell id="OkRTlTAxSxX06MVWos4w-0"/>
                <mxCell id="OkRTlTAxSxX06MVWos4w-1" parent="OkRTlTAxSxX06MVWos4w-0"/>
                <mxCell id="jW_JQMvDs63lKziggeAQ-4" style="edgeStyle=orthogonalEdgeStyle;html=1;exitX=1;exitY=0.5;exitDx=0;exitDy=0;entryX=0.5;entryY=0;entryDx=0;entryDy=0;curved=1;" parent="OkRTlTAxSxX06MVWos4w-1" source="jW_JQMvDs63lKziggeAQ-0" target="jW_JQMvDs63lKziggeAQ-3" edge="1">
                    <mxGeometry relative="1" as="geometry"/>
                </mxCell>
                <mxCell id="NeKJE4z-g7RE1v-yq9Ff-1" value="Timer_0 == 0&lt;br&gt;&lt;br&gt;Timer_0 = green_time" style="edgeLabel;html=1;align=center;verticalAlign=middle;resizable=0;points=[];" parent="jW_JQMvDs63lKziggeAQ-4" vertex="1" connectable="0">
                    <mxGeometry x="-0.2474" y="-14" relative="1" as="geometry">
                        <mxPoint x="20" y="26" as="offset"/>
                    </mxGeometry>
                </mxCell>
                <mxCell id="jW_JQMvDs63lKziggeAQ-0" value="&lt;font color=&quot;#ffffff&quot;&gt;&lt;b&gt;RED light&lt;/b&gt;&lt;/font&gt;" style="ellipse;whiteSpace=wrap;html=1;aspect=fixed;fillColor=#e51400;strokeColor=#B20000;fontColor=#ffffff;" parent="OkRTlTAxSxX06MVWos4w-1" vertex="1">
                    <mxGeometry x="1030" y="190" width="80" height="80" as="geometry"/>
                </mxCell>
                <mxCell id="jW_JQMvDs63lKziggeAQ-6" style="edgeStyle=orthogonalEdgeStyle;curved=1;html=1;exitX=0.5;exitY=0;exitDx=0;exitDy=0;entryX=0;entryY=0.5;entryDx=0;entryDy=0;" parent="OkRTlTAxSxX06MVWos4w-1" source="jW_JQMvDs63lKziggeAQ-2" target="jW_JQMvDs63lKziggeAQ-0" edge="1">
                    <mxGeometry relative="1" as="geometry"/>
                </mxCell>
                <mxCell id="NeKJE4z-g7RE1v-yq9Ff-5" value="&lt;span style=&quot;color: rgba(0, 0, 0, 0); font-family: monospace; font-size: 0px; text-align: start; background-color: rgb(251, 251, 251);&quot;&gt;%3CmxGraphModel%3E%3Croot%3E%3CmxCell%20id%3D%220%22%2F%3E%3CmxCell%20id%3D%221%22%20parent%3D%220%22%2F%3E%3CmxCell%20id%3D%222%22%20value%3D%22%22%20style%3D%22endArrow%3Dnone%3Bhtml%3D1%3Bcurved%3D1%3B%22%20edge%3D%221%22%20parent%3D%221%22%3E%3CmxGeometry%20width%3D%2250%22%20height%3D%2250%22%20relative%3D%221%22%20as%3D%22geometry%22%3E%3CmxPoint%20x%3D%221380%22%20y%3D%22270%22%20as%3D%22sourcePoint%22%2F%3E%3CmxPoint%20x%3D%221260%22%20y%3D%22270%22%20as%3D%22targetPoint%22%2F%3E%3C%2FmxGeometry%3E%3C%2FmxCell%3E%3C%2Froot%3E%3C%2FmxGraphModel%3E&lt;/span&gt;&lt;span style=&quot;color: rgba(0, 0, 0, 0); font-family: monospace; font-size: 0px; text-align: start; background-color: rgb(251, 251, 251);&quot;&gt;%3CmxGraphModel%3E%3Croot%3E%3CmxCell%20id%3D%220%22%2F%3E%3CmxCell%20id%3D%221%22%20parent%3D%220%22%2F%3E%3CmxCell%20id%3D%222%22%20value%3D%22%22%20style%3D%22endArrow%3Dnone%3Bhtml%3D1%3Bcurved%3D1%3B%22%20edge%3D%221%22%20parent%3D%221%22%3E%3CmxGeometry%20width%3D%2250%22%20height%3D%2250%22%20relative%3D%221%22%20as%3D%22geometry%22%3E%3CmxPoint%20x%3D%221380%22%20y%3D%22270%22%20as%3D%22sourcePoint%22%2F%3E%3CmxPoint%20x%3D%221260%22%20y%3D%22270%22%20as%3D%22targetPoint%22%2F%3E%3C%2FmxGeometry%3E%3C%2FmxCell%3E%3C%2Froot%3E%3C%2FmxGraphModel%3E&lt;/span&gt;" style="edgeLabel;html=1;align=center;verticalAlign=middle;resizable=0;points=[];" parent="jW_JQMvDs63lKziggeAQ-6" vertex="1" connectable="0">
                    <mxGeometry x="-0.5216" y="-6" relative="1" as="geometry">
                        <mxPoint as="offset"/>
                    </mxGeometry>
                </mxCell>
                <mxCell id="NeKJE4z-g7RE1v-yq9Ff-6" value="Timer_0 == 0&lt;br style=&quot;border-color: var(--border-color);&quot;&gt;&lt;br style=&quot;border-color: var(--border-color);&quot;&gt;Timer_0 = red_time" style="edgeLabel;html=1;align=center;verticalAlign=middle;resizable=0;points=[];" parent="jW_JQMvDs63lKziggeAQ-6" vertex="1" connectable="0">
                    <mxGeometry x="-0.4477" y="-6" relative="1" as="geometry">
                        <mxPoint x="4" y="4" as="offset"/>
                    </mxGeometry>
                </mxCell>
                <mxCell id="jW_JQMvDs63lKziggeAQ-2" value="&lt;font color=&quot;#ffffff&quot;&gt;&lt;b&gt;AMBER light&lt;/b&gt;&lt;/font&gt;" style="ellipse;whiteSpace=wrap;html=1;aspect=fixed;fillColor=#e3c800;strokeColor=none;fontColor=#000000;" parent="OkRTlTAxSxX06MVWos4w-1" vertex="1">
                    <mxGeometry x="910" y="310" width="80" height="80" as="geometry"/>
                </mxCell>
                <mxCell id="jW_JQMvDs63lKziggeAQ-5" style="edgeStyle=orthogonalEdgeStyle;curved=1;html=1;exitX=0.5;exitY=1;exitDx=0;exitDy=0;entryX=0.5;entryY=1;entryDx=0;entryDy=0;" parent="OkRTlTAxSxX06MVWos4w-1" source="jW_JQMvDs63lKziggeAQ-3" target="jW_JQMvDs63lKziggeAQ-2" edge="1">
                    <mxGeometry relative="1" as="geometry">
                        <Array as="points">
                            <mxPoint x="1190" y="450"/>
                            <mxPoint x="950" y="450"/>
                        </Array>
                    </mxGeometry>
                </mxCell>
                <mxCell id="NeKJE4z-g7RE1v-yq9Ff-3" value="Timer_0 == 0&lt;br style=&quot;border-color: var(--border-color);&quot;&gt;&lt;br style=&quot;border-color: var(--border-color);&quot;&gt;Timer_0 = amber_time" style="edgeLabel;html=1;align=center;verticalAlign=middle;resizable=0;points=[];" parent="jW_JQMvDs63lKziggeAQ-5" vertex="1" connectable="0">
                    <mxGeometry relative="1" as="geometry">
                        <mxPoint as="offset"/>
                    </mxGeometry>
                </mxCell>
                <mxCell id="jW_JQMvDs63lKziggeAQ-3" value="&lt;font color=&quot;#ffffff&quot;&gt;&lt;b&gt;GREEN light&lt;/b&gt;&lt;/font&gt;" style="ellipse;whiteSpace=wrap;html=1;aspect=fixed;fillColor=#6d8764;strokeColor=none;fontColor=#ffffff;" parent="OkRTlTAxSxX06MVWos4w-1" vertex="1">
                    <mxGeometry x="1150" y="310" width="80" height="80" as="geometry"/>
                </mxCell>
                <mxCell id="NeKJE4z-g7RE1v-yq9Ff-0" value="" style="endArrow=classic;html=1;dashed=1;entryX=0;entryY=0;entryDx=0;entryDy=0;" parent="OkRTlTAxSxX06MVWos4w-1" target="jW_JQMvDs63lKziggeAQ-0" edge="1">
                    <mxGeometry width="50" height="50" relative="1" as="geometry">
                        <mxPoint x="990" y="160" as="sourcePoint"/>
                        <mxPoint x="1012" y="180" as="targetPoint"/>
                    </mxGeometry>
                </mxCell>
                <mxCell id="NeKJE4z-g7RE1v-yq9Ff-2" value="" style="endArrow=none;html=1;curved=1;" parent="OkRTlTAxSxX06MVWos4w-1" edge="1">
                    <mxGeometry width="50" height="50" relative="1" as="geometry">
                        <mxPoint x="1250" y="270" as="sourcePoint"/>
                        <mxPoint x="1130" y="270" as="targetPoint"/>
                    </mxGeometry>
                </mxCell>
                <mxCell id="NeKJE4z-g7RE1v-yq9Ff-4" value="" style="endArrow=none;html=1;curved=1;" parent="OkRTlTAxSxX06MVWos4w-1" edge="1">
                    <mxGeometry x="-0.0805" width="50" height="50" relative="1" as="geometry">
                        <mxPoint x="1130" y="450" as="sourcePoint"/>
                        <mxPoint x="1010" y="450" as="targetPoint"/>
                    </mxGeometry>
                </mxCell>
                <mxCell id="NeKJE4z-g7RE1v-yq9Ff-7" value="" style="endArrow=none;html=1;curved=1;" parent="OkRTlTAxSxX06MVWos4w-1" edge="1">
                    <mxGeometry width="50" height="50" relative="1" as="geometry">
                        <mxPoint x="1020" y="270" as="sourcePoint"/>
                        <mxPoint x="900" y="270" as="targetPoint"/>
                    </mxGeometry>
                </mxCell>
                <mxCell id="NeKJE4z-g7RE1v-yq9Ff-8" style="edgeStyle=orthogonalEdgeStyle;html=1;exitX=1;exitY=0.5;exitDx=0;exitDy=0;entryX=0.5;entryY=0;entryDx=0;entryDy=0;curved=1;" parent="OkRTlTAxSxX06MVWos4w-1" source="NeKJE4z-g7RE1v-yq9Ff-10" target="NeKJE4z-g7RE1v-yq9Ff-17" edge="1">
                    <mxGeometry relative="1" as="geometry"/>
                </mxCell>
                <mxCell id="NeKJE4z-g7RE1v-yq9Ff-9" value="Timer_1 == 0&lt;br&gt;&lt;br&gt;Timer_1 = amber_time" style="edgeLabel;html=1;align=center;verticalAlign=middle;resizable=0;points=[];" parent="NeKJE4z-g7RE1v-yq9Ff-8" vertex="1" connectable="0">
                    <mxGeometry x="-0.2474" y="-14" relative="1" as="geometry">
                        <mxPoint x="20" y="26" as="offset"/>
                    </mxGeometry>
                </mxCell>
                <mxCell id="NeKJE4z-g7RE1v-yq9Ff-10" value="&lt;font color=&quot;#ffffff&quot;&gt;&lt;b&gt;GREEN light&lt;/b&gt;&lt;/font&gt;" style="ellipse;whiteSpace=wrap;html=1;aspect=fixed;fillColor=#6d8764;strokeColor=#3A5431;fontColor=#ffffff;" parent="OkRTlTAxSxX06MVWos4w-1" vertex="1">
                    <mxGeometry x="1430" y="190" width="80" height="80" as="geometry"/>
                </mxCell>
                <mxCell id="NeKJE4z-g7RE1v-yq9Ff-11" style="edgeStyle=orthogonalEdgeStyle;curved=1;html=1;exitX=0.5;exitY=0;exitDx=0;exitDy=0;entryX=0;entryY=0.5;entryDx=0;entryDy=0;" parent="OkRTlTAxSxX06MVWos4w-1" source="NeKJE4z-g7RE1v-yq9Ff-14" target="NeKJE4z-g7RE1v-yq9Ff-10" edge="1">
                    <mxGeometry relative="1" as="geometry"/>
                </mxCell>
                <mxCell id="NeKJE4z-g7RE1v-yq9Ff-12" value="&lt;span style=&quot;color: rgba(0, 0, 0, 0); font-family: monospace; font-size: 0px; text-align: start; background-color: rgb(251, 251, 251);&quot;&gt;%3CmxGraphModel%3E%3Croot%3E%3CmxCell%20id%3D%220%22%2F%3E%3CmxCell%20id%3D%221%22%20parent%3D%220%22%2F%3E%3CmxCell%20id%3D%222%22%20value%3D%22%22%20style%3D%22endArrow%3Dnone%3Bhtml%3D1%3Bcurved%3D1%3B%22%20edge%3D%221%22%20parent%3D%221%22%3E%3CmxGeometry%20width%3D%2250%22%20height%3D%2250%22%20relative%3D%221%22%20as%3D%22geometry%22%3E%3CmxPoint%20x%3D%221380%22%20y%3D%22270%22%20as%3D%22sourcePoint%22%2F%3E%3CmxPoint%20x%3D%221260%22%20y%3D%22270%22%20as%3D%22targetPoint%22%2F%3E%3C%2FmxGeometry%3E%3C%2FmxCell%3E%3C%2Froot%3E%3C%2FmxGraphModel%3E&lt;/span&gt;&lt;span style=&quot;color: rgba(0, 0, 0, 0); font-family: monospace; font-size: 0px; text-align: start; background-color: rgb(251, 251, 251);&quot;&gt;%3CmxGraphModel%3E%3Croot%3E%3CmxCell%20id%3D%220%22%2F%3E%3CmxCell%20id%3D%221%22%20parent%3D%220%22%2F%3E%3CmxCell%20id%3D%222%22%20value%3D%22%22%20style%3D%22endArrow%3Dnone%3Bhtml%3D1%3Bcurved%3D1%3B%22%20edge%3D%221%22%20parent%3D%221%22%3E%3CmxGeometry%20width%3D%2250%22%20height%3D%2250%22%20relative%3D%221%22%20as%3D%22geometry%22%3E%3CmxPoint%20x%3D%221380%22%20y%3D%22270%22%20as%3D%22sourcePoint%22%2F%3E%3CmxPoint%20x%3D%221260%22%20y%3D%22270%22%20as%3D%22targetPoint%22%2F%3E%3C%2FmxGeometry%3E%3C%2FmxCell%3E%3C%2Froot%3E%3C%2FmxGraphModel%3E&lt;/span&gt;" style="edgeLabel;html=1;align=center;verticalAlign=middle;resizable=0;points=[];" parent="NeKJE4z-g7RE1v-yq9Ff-11" vertex="1" connectable="0">
                    <mxGeometry x="-0.5216" y="-6" relative="1" as="geometry">
                        <mxPoint as="offset"/>
                    </mxGeometry>
                </mxCell>
                <mxCell id="NeKJE4z-g7RE1v-yq9Ff-13" value="Timer_1 == 0&lt;br style=&quot;border-color: var(--border-color);&quot;&gt;&lt;br style=&quot;border-color: var(--border-color);&quot;&gt;Timer_1 = green_time" style="edgeLabel;html=1;align=center;verticalAlign=middle;resizable=0;points=[];" parent="NeKJE4z-g7RE1v-yq9Ff-11" vertex="1" connectable="0">
                    <mxGeometry x="-0.4477" y="-6" relative="1" as="geometry">
                        <mxPoint x="4" y="4" as="offset"/>
                    </mxGeometry>
                </mxCell>
                <mxCell id="NeKJE4z-g7RE1v-yq9Ff-14" value="&lt;font color=&quot;#ffffff&quot;&gt;&lt;b&gt;RED light&lt;/b&gt;&lt;/font&gt;" style="ellipse;whiteSpace=wrap;html=1;aspect=fixed;fillColor=#e51400;strokeColor=#B20000;fontColor=#ffffff;" parent="OkRTlTAxSxX06MVWos4w-1" vertex="1">
                    <mxGeometry x="1310" y="310" width="80" height="80" as="geometry"/>
                </mxCell>
                <mxCell id="NeKJE4z-g7RE1v-yq9Ff-15" style="edgeStyle=orthogonalEdgeStyle;curved=1;html=1;exitX=0.5;exitY=1;exitDx=0;exitDy=0;entryX=0.5;entryY=1;entryDx=0;entryDy=0;" parent="OkRTlTAxSxX06MVWos4w-1" source="NeKJE4z-g7RE1v-yq9Ff-17" target="NeKJE4z-g7RE1v-yq9Ff-14" edge="1">
                    <mxGeometry relative="1" as="geometry">
                        <Array as="points">
                            <mxPoint x="1590" y="450"/>
                            <mxPoint x="1350" y="450"/>
                        </Array>
                    </mxGeometry>
                </mxCell>
                <mxCell id="NeKJE4z-g7RE1v-yq9Ff-16" value="Timer_1 == 0&lt;br style=&quot;border-color: var(--border-color);&quot;&gt;&lt;br style=&quot;border-color: var(--border-color);&quot;&gt;Timer_1 = red_time" style="edgeLabel;html=1;align=center;verticalAlign=middle;resizable=0;points=[];" parent="NeKJE4z-g7RE1v-yq9Ff-15" vertex="1" connectable="0">
                    <mxGeometry relative="1" as="geometry">
                        <mxPoint as="offset"/>
                    </mxGeometry>
                </mxCell>
                <mxCell id="NeKJE4z-g7RE1v-yq9Ff-17" value="&lt;font color=&quot;#ffffff&quot;&gt;&lt;b&gt;AMBER light&lt;/b&gt;&lt;/font&gt;" style="ellipse;whiteSpace=wrap;html=1;aspect=fixed;fillColor=#e3c800;strokeColor=#B09500;fontColor=#000000;" parent="OkRTlTAxSxX06MVWos4w-1" vertex="1">
                    <mxGeometry x="1550" y="310" width="80" height="80" as="geometry"/>
                </mxCell>
                <mxCell id="NeKJE4z-g7RE1v-yq9Ff-19" value="" style="endArrow=none;html=1;curved=1;" parent="OkRTlTAxSxX06MVWos4w-1" edge="1">
                    <mxGeometry width="50" height="50" relative="1" as="geometry">
                        <mxPoint x="1650" y="270" as="sourcePoint"/>
                        <mxPoint x="1530" y="270" as="targetPoint"/>
                    </mxGeometry>
                </mxCell>
                <mxCell id="NeKJE4z-g7RE1v-yq9Ff-20" value="" style="endArrow=none;html=1;curved=1;" parent="OkRTlTAxSxX06MVWos4w-1" edge="1">
                    <mxGeometry x="-0.0805" width="50" height="50" relative="1" as="geometry">
                        <mxPoint x="1530" y="449.9999999999999" as="sourcePoint"/>
                        <mxPoint x="1410" y="449.9999999999999" as="targetPoint"/>
                    </mxGeometry>
                </mxCell>
                <mxCell id="NeKJE4z-g7RE1v-yq9Ff-21" value="" style="endArrow=none;html=1;curved=1;" parent="OkRTlTAxSxX06MVWos4w-1" edge="1">
                    <mxGeometry width="50" height="50" relative="1" as="geometry">
                        <mxPoint x="1420" y="270" as="sourcePoint"/>
                        <mxPoint x="1300" y="270" as="targetPoint"/>
                    </mxGeometry>
                </mxCell>
                <mxCell id="NeKJE4z-g7RE1v-yq9Ff-22" value="" style="endArrow=classic;html=1;dashed=1;entryX=0;entryY=0;entryDx=0;entryDy=0;" parent="OkRTlTAxSxX06MVWos4w-1" target="NeKJE4z-g7RE1v-yq9Ff-10" edge="1">
                    <mxGeometry width="50" height="50" relative="1" as="geometry">
                        <mxPoint x="1390" y="160" as="sourcePoint"/>
                        <mxPoint x="1441.715728752533" y="201.7157287525331" as="targetPoint"/>
                    </mxGeometry>
                </mxCell>
            </root>
        </mxGraphModel>
    </diagram>
</mxfile>